M48
; DRILL file {KiCad (6.0.7)} date Tue Aug 30 19:45:45 2022
; FORMAT={-:-/ absolute / inch / decimal}
; #@! TF.CreationDate,2022-08-30T19:45:45+01:00
; #@! TF.GenerationSoftware,Kicad,Pcbnew,(6.0.7)
; #@! TF.FileFunction,NonPlated,1,2,NPTH
FMAT,2
INCH
; #@! TA.AperFunction,NonPlated,NPTH,ComponentDrill
T1C0.0591
; #@! TA.AperFunction,NonPlated,NPTH,ComponentDrill
T2C0.0670
; #@! TA.AperFunction,NonPlated,NPTH,ComponentDrill
T3C0.0866
; #@! TA.AperFunction,NonPlated,NPTH,ComponentDrill
T4C0.1570
%
G90
G05
T1
X10.375Y-6.068
X10.6472Y-6.1111
T2
X5.6217Y-4.661
X5.6217Y-5.409
X6.0217Y-4.661
X6.0217Y-5.409
X6.3697Y-4.1098
X6.3697Y-4.8578
X6.3697Y-5.6059
X6.7697Y-4.1098
X6.7697Y-4.8578
X6.7697Y-5.6059
X7.1476Y-5.316
X7.2128Y-4.5708
X7.278Y-3.8256
X7.546Y-5.3509
X7.6112Y-4.6057
X7.6764Y-3.8605
X7.9302Y-5.1799
X8.0214Y-4.4374
X8.1126Y-3.695
X8.3273Y-5.2286
X8.4184Y-4.4862
X8.5096Y-3.7437
X8.669Y-5.3825
X8.7861Y-4.6437
X8.9031Y-3.9049
X9.0002Y-6.3119
X9.0641Y-5.4451
X9.1811Y-4.7063
X9.2982Y-3.9675
X9.3894Y-5.6162
X9.3953Y-6.3745
X9.5064Y-4.8774
X9.6234Y-4.1386
X9.7845Y-5.6788
X9.9015Y-4.94
X9.9444Y-6.6283
X10.0185Y-4.2011
X10.2638Y-6.869
X10.6628Y-7.3239
X10.8319Y-7.6864
T3
X6.134Y-4.229
X6.166Y-5.776
X7.747Y-4.981
X7.861Y-3.46
X9.132Y-5.849
X9.556Y-3.71
X9.748Y-6.289
X10.442Y-7.108
T4
X5.8217Y-4.661
X5.8217Y-5.409
X6.5697Y-4.1098
X6.5697Y-4.8578
X6.5697Y-5.6059
X7.3468Y-5.3334
X7.412Y-4.5882
X7.4772Y-3.8431
X8.1288Y-5.2042
X8.2199Y-4.4618
X8.3111Y-3.7193
X8.8666Y-5.4138
X8.9836Y-4.675
X9.1006Y-3.9362
X9.1977Y-6.3432
X9.5869Y-5.6475
X9.7039Y-4.9087
X9.821Y-4.1699
X10.1041Y-6.7486
X10.7474Y-7.5052
T0
M30
