%TF.GenerationSoftware,KiCad,Pcbnew,(6.0.7)*%
%TF.CreationDate,2022-08-30T19:44:11+01:00*%
%TF.ProjectId,cumulus,63756d75-6c75-4732-9e6b-696361645f70,v1.0.0*%
%TF.SameCoordinates,Original*%
%TF.FileFunction,Legend,Top*%
%TF.FilePolarity,Positive*%
%FSLAX46Y46*%
G04 Gerber Fmt 4.6, Leading zero omitted, Abs format (unit mm)*
G04 Created by KiCad (PCBNEW (6.0.7)) date 2022-08-30 19:44:11*
%MOMM*%
%LPD*%
G01*
G04 APERTURE LIST*
G04 Aperture macros list*
%AMRoundRect*
0 Rectangle with rounded corners*
0 $1 Rounding radius*
0 $2 $3 $4 $5 $6 $7 $8 $9 X,Y pos of 4 corners*
0 Add a 4 corners polygon primitive as box body*
4,1,4,$2,$3,$4,$5,$6,$7,$8,$9,$2,$3,0*
0 Add four circle primitives for the rounded corners*
1,1,$1+$1,$2,$3*
1,1,$1+$1,$4,$5*
1,1,$1+$1,$6,$7*
1,1,$1+$1,$8,$9*
0 Add four rect primitives between the rounded corners*
20,1,$1+$1,$2,$3,$4,$5,0*
20,1,$1+$1,$4,$5,$6,$7,0*
20,1,$1+$1,$6,$7,$8,$9,0*
20,1,$1+$1,$8,$9,$2,$3,0*%
%AMHorizOval*
0 Thick line with rounded ends*
0 $1 width*
0 $2 $3 position (X,Y) of the first rounded end (center of the circle)*
0 $4 $5 position (X,Y) of the second rounded end (center of the circle)*
0 Add line between two ends*
20,1,$1,$2,$3,$4,$5,0*
0 Add two circle primitives to create the rounded ends*
1,1,$1,$2,$3*
1,1,$1,$4,$5*%
%AMRotRect*
0 Rectangle, with rotation*
0 The origin of the aperture is its center*
0 $1 length*
0 $2 width*
0 $3 Rotation angle, in degrees counterclockwise*
0 Add horizontal line*
21,1,$1,$2,0,0,$3*%
G04 Aperture macros list end*
%ADD10C,0.300000*%
%ADD11C,0.150000*%
%ADD12C,0.010000*%
%ADD13C,0.100000*%
%ADD14C,1.752600*%
%ADD15RotRect,1.752600X1.752600X261.000000*%
%ADD16C,2.300000*%
%ADD17RoundRect,0.050000X0.738985X-1.017125X1.017125X0.738985X-0.738985X1.017125X-1.017125X-0.738985X0*%
%ADD18RoundRect,0.050000X0.522217X-0.538320X0.663009X0.350599X-0.522217X0.538320X-0.663009X-0.350599X0*%
%ADD19C,2.005000*%
%ADD20RoundRect,0.050000X0.558497X-0.500581X0.636937X0.395994X-0.558497X0.500581X-0.636937X-0.395994X0*%
%ADD21RoundRect,0.050000X0.808136X-0.963099X0.963099X0.808136X-0.808136X0.963099X-0.963099X-0.808136X0*%
%ADD22C,2.386000*%
%ADD23C,4.087800*%
%ADD24C,1.801800*%
%ADD25RoundRect,0.050000X0.600000X-0.450000X0.600000X0.450000X-0.600000X0.450000X-0.600000X-0.450000X0*%
%ADD26RoundRect,0.050000X0.889000X-0.889000X0.889000X0.889000X-0.889000X0.889000X-0.889000X-0.889000X0*%
%ADD27C,1.600000*%
%ADD28HorizOval,1.700000X-0.296307X0.046930X0.296307X-0.046930X0*%
%ADD29RoundRect,0.050000X0.774032X-0.990715X0.990715X0.774032X-0.774032X0.990715X-0.990715X-0.774032X0*%
%ADD30RoundRect,0.050000X0.540686X-0.519767X0.650369X0.373524X-0.540686X0.519767X-0.650369X-0.373524X0*%
%ADD31RoundRect,0.050000X0.208365X-0.720475X0.749998X-0.001703X-0.208365X0.720475X-0.749998X0.001703X0*%
%ADD32RoundRect,0.050000X0.174973X-1.245001X1.245001X0.174973X-0.174973X1.245001X-1.245001X-0.174973X0*%
%ADD33C,1.852600*%
%ADD34RoundRect,0.050000X-0.728428X1.002595X-1.002595X-0.728428X0.728428X-1.002595X1.002595X0.728428X0*%
%ADD35RoundRect,0.050000X-0.430000X-1.181415X1.181415X-0.430000X0.430000X1.181415X-1.181415X0.430000X0*%
%ADD36RoundRect,0.050000X-0.154268X-0.733963X0.661409X-0.353606X0.154268X0.733963X-0.661409X0.353606X0*%
G04 APERTURE END LIST*
D10*
%TO.C,G\u002A\u002A\u002A*%
X166297428Y-129413000D02*
X166152285Y-129340428D01*
X165934571Y-129340428D01*
X165716857Y-129413000D01*
X165571714Y-129558142D01*
X165499142Y-129703285D01*
X165426571Y-129993571D01*
X165426571Y-130211285D01*
X165499142Y-130501571D01*
X165571714Y-130646714D01*
X165716857Y-130791857D01*
X165934571Y-130864428D01*
X166079714Y-130864428D01*
X166297428Y-130791857D01*
X166370000Y-130719285D01*
X166370000Y-130211285D01*
X166079714Y-130211285D01*
X167240857Y-129340428D02*
X167240857Y-129703285D01*
X166878000Y-129558142D02*
X167240857Y-129703285D01*
X167603714Y-129558142D01*
X167023142Y-129993571D02*
X167240857Y-129703285D01*
X167458571Y-129993571D01*
X168402000Y-129340428D02*
X168402000Y-129703285D01*
X168039142Y-129558142D02*
X168402000Y-129703285D01*
X168764857Y-129558142D01*
X168184285Y-129993571D02*
X168402000Y-129703285D01*
X168619714Y-129993571D01*
X169563142Y-129340428D02*
X169563142Y-129703285D01*
X169200285Y-129558142D02*
X169563142Y-129703285D01*
X169926000Y-129558142D01*
X169345428Y-129993571D02*
X169563142Y-129703285D01*
X169780857Y-129993571D01*
D11*
%TO.C,MCU1*%
X268311270Y-147302317D02*
X268186122Y-148092468D01*
X267885112Y-148044793D01*
X267815819Y-147995248D01*
X267784152Y-147951662D01*
X267758445Y-147870450D01*
X267776323Y-147757572D01*
X267825868Y-147688278D01*
X267869454Y-147656612D01*
X267950666Y-147630904D01*
X268251675Y-147678580D01*
X267107230Y-147111616D02*
X267558745Y-147183129D01*
X267332988Y-147147373D02*
X267207840Y-147937523D01*
X267300971Y-147836564D01*
X267388142Y-147773230D01*
X267469354Y-147747522D01*
X266304811Y-147794498D02*
X266455316Y-147818335D01*
X266536528Y-147792628D01*
X266580113Y-147760961D01*
X266673244Y-147660001D01*
X266734708Y-147515456D01*
X266782383Y-147214446D01*
X266756676Y-147133234D01*
X266725009Y-147089648D01*
X266655716Y-147040103D01*
X266505211Y-147016266D01*
X266423999Y-147041973D01*
X266380413Y-147073640D01*
X266330868Y-147142933D01*
X266301071Y-147331064D01*
X266326779Y-147412276D01*
X266358446Y-147455862D01*
X266427739Y-147505407D01*
X266578243Y-147529244D01*
X266659455Y-147503537D01*
X266703041Y-147471870D01*
X266752586Y-147402577D01*
X271061593Y-130546267D02*
X270923357Y-129714401D01*
X270534825Y-130462836D01*
X269933156Y-129634709D02*
X269976742Y-129603042D01*
X270095580Y-129583294D01*
X270170832Y-129595213D01*
X270277751Y-129650717D01*
X270341085Y-129737889D01*
X270366792Y-129819100D01*
X270380581Y-129975565D01*
X270362703Y-130088443D01*
X270301239Y-130232989D01*
X270251694Y-130302282D01*
X270164523Y-130365615D01*
X270045685Y-130385363D01*
X269970432Y-130373445D01*
X269863513Y-130317940D01*
X269831846Y-130274355D01*
X269143005Y-129509561D02*
X269186591Y-129477894D01*
X269305429Y-129458146D01*
X269380681Y-129470065D01*
X269487601Y-129525570D01*
X269550934Y-129612741D01*
X269576642Y-129693953D01*
X269590430Y-129850417D01*
X269572552Y-129963296D01*
X269511088Y-130107841D01*
X269461543Y-130177134D01*
X269374372Y-130240468D01*
X269255534Y-130260216D01*
X269180281Y-130248297D01*
X269073362Y-130192793D01*
X269041695Y-130149207D01*
X259624149Y-140783090D02*
X259499001Y-141573241D01*
X259197991Y-141525566D01*
X259128698Y-141476021D01*
X259097031Y-141432435D01*
X259071324Y-141351223D01*
X259089202Y-141238345D01*
X259138747Y-141169051D01*
X259182333Y-141137385D01*
X259263545Y-141111677D01*
X259564554Y-141159353D01*
X258558345Y-141424256D02*
X258483093Y-141412337D01*
X258413800Y-141362792D01*
X258382133Y-141319206D01*
X258356426Y-141237994D01*
X258342637Y-141081530D01*
X258372434Y-140893399D01*
X258433898Y-140748854D01*
X258483443Y-140679560D01*
X258527029Y-140647894D01*
X258608241Y-140622186D01*
X258683493Y-140634105D01*
X258752786Y-140683650D01*
X258784453Y-140727236D01*
X258810160Y-140808448D01*
X258823949Y-140964912D01*
X258794152Y-141153043D01*
X258732688Y-141297589D01*
X258683143Y-141366882D01*
X258639557Y-141398548D01*
X258558345Y-141424256D01*
X257617690Y-141275271D02*
X257768195Y-141299108D01*
X257849407Y-141273401D01*
X257892992Y-141241734D01*
X257986123Y-141140774D01*
X258047587Y-140996229D01*
X258095262Y-140695219D01*
X258069555Y-140614007D01*
X258037888Y-140570421D01*
X257968595Y-140520876D01*
X257818090Y-140497039D01*
X257736878Y-140522746D01*
X257693292Y-140554413D01*
X257643747Y-140623706D01*
X257613950Y-140811837D01*
X257639658Y-140893049D01*
X257671325Y-140936635D01*
X257740618Y-140986180D01*
X257891122Y-141010017D01*
X257972334Y-140984310D01*
X258015920Y-140952643D01*
X258065465Y-140883350D01*
X269105957Y-142284860D02*
X268980809Y-143075011D01*
X268679799Y-143027336D01*
X268610506Y-142977791D01*
X268578839Y-142934205D01*
X268553132Y-142852993D01*
X268571010Y-142740115D01*
X268620555Y-142670821D01*
X268664141Y-142639155D01*
X268745353Y-142613447D01*
X269046362Y-142661123D01*
X267901917Y-142094159D02*
X268353432Y-142165672D01*
X268127675Y-142129916D02*
X268002527Y-142920066D01*
X268095658Y-142819107D01*
X268182829Y-142755773D01*
X268264041Y-142730065D01*
X267061872Y-142771081D02*
X267438134Y-142830675D01*
X267535354Y-142460372D01*
X267491769Y-142492039D01*
X267410557Y-142517747D01*
X267222426Y-142487950D01*
X267153133Y-142438405D01*
X267121466Y-142394819D01*
X267095758Y-142313607D01*
X267125555Y-142125476D01*
X267175100Y-142056183D01*
X267218686Y-142024516D01*
X267299898Y-141998809D01*
X267488029Y-142028606D01*
X267557322Y-142078151D01*
X267588989Y-142121736D01*
X260418836Y-135765633D02*
X260293688Y-136555784D01*
X259992678Y-136508109D01*
X259923385Y-136458564D01*
X259891718Y-136414978D01*
X259866011Y-136333766D01*
X259883889Y-136220888D01*
X259933434Y-136151594D01*
X259977020Y-136119928D01*
X260058232Y-136094220D01*
X260359241Y-136141896D01*
X259353032Y-136406799D02*
X259277780Y-136394880D01*
X259208487Y-136345335D01*
X259176820Y-136301749D01*
X259151113Y-136220537D01*
X259137324Y-136064073D01*
X259167121Y-135875942D01*
X259228585Y-135731397D01*
X259278130Y-135662103D01*
X259321716Y-135630437D01*
X259402928Y-135604729D01*
X259478180Y-135616648D01*
X259547473Y-135666193D01*
X259579140Y-135709779D01*
X259604847Y-135790991D01*
X259618636Y-135947455D01*
X259588839Y-136135586D01*
X259527375Y-136280132D01*
X259477830Y-136349425D01*
X259434244Y-136381091D01*
X259353032Y-136406799D01*
X258454093Y-135994430D02*
X258537524Y-135467663D01*
X258594549Y-136325237D02*
X258872071Y-135790641D01*
X258382930Y-135713168D01*
X258829462Y-145800546D02*
X258704314Y-146590697D01*
X258403304Y-146543022D01*
X258334011Y-146493477D01*
X258302344Y-146449891D01*
X258276637Y-146368679D01*
X258294515Y-146255801D01*
X258344060Y-146186507D01*
X258387646Y-146154841D01*
X258468858Y-146129133D01*
X258769867Y-146176809D01*
X257763658Y-146441712D02*
X257688406Y-146429793D01*
X257619113Y-146380248D01*
X257587446Y-146336662D01*
X257561739Y-146255450D01*
X257547950Y-146098986D01*
X257577747Y-145910855D01*
X257639211Y-145766310D01*
X257688756Y-145697016D01*
X257732342Y-145665350D01*
X257813554Y-145639642D01*
X257888806Y-145651561D01*
X257958099Y-145701106D01*
X257989766Y-145744692D01*
X258015473Y-145825904D01*
X258029262Y-145982368D01*
X257999465Y-146170499D01*
X257938001Y-146315045D01*
X257888456Y-146384338D01*
X257844870Y-146416004D01*
X257763658Y-146441712D01*
X257102395Y-145989847D02*
X257171688Y-146039392D01*
X257203355Y-146082978D01*
X257229062Y-146164190D01*
X257223103Y-146201816D01*
X257173558Y-146271109D01*
X257129972Y-146302776D01*
X257048760Y-146328483D01*
X256898255Y-146304645D01*
X256828962Y-146255100D01*
X256797295Y-146211515D01*
X256771588Y-146130303D01*
X256777547Y-146092677D01*
X256827092Y-146023384D01*
X256870678Y-145991717D01*
X256951890Y-145966009D01*
X257102395Y-145989847D01*
X257183607Y-145964140D01*
X257227192Y-145932473D01*
X257276737Y-145863180D01*
X257300575Y-145712675D01*
X257274868Y-145631463D01*
X257243201Y-145587877D01*
X257173908Y-145538332D01*
X257023403Y-145514495D01*
X256942191Y-145540202D01*
X256898605Y-145571869D01*
X256849060Y-145641162D01*
X256825223Y-145791667D01*
X256850930Y-145872879D01*
X256882597Y-145916464D01*
X256951890Y-145966009D01*
X258432118Y-148309275D02*
X258306970Y-149099426D01*
X258005960Y-149051751D01*
X257936667Y-149002206D01*
X257905000Y-148958620D01*
X257879293Y-148877408D01*
X257897171Y-148764530D01*
X257946716Y-148695236D01*
X257990302Y-148663570D01*
X258071514Y-148637862D01*
X258372523Y-148685538D01*
X257366314Y-148950441D02*
X257291062Y-148938522D01*
X257221769Y-148888977D01*
X257190102Y-148845391D01*
X257164395Y-148764179D01*
X257150606Y-148607715D01*
X257180403Y-148419584D01*
X257241867Y-148275039D01*
X257291412Y-148205745D01*
X257334998Y-148174079D01*
X257416210Y-148148371D01*
X257491462Y-148160290D01*
X257560755Y-148209835D01*
X257592422Y-148253421D01*
X257618129Y-148334633D01*
X257631918Y-148491097D01*
X257602121Y-148679228D01*
X257540657Y-148823774D01*
X257491112Y-148893067D01*
X257447526Y-148924733D01*
X257366314Y-148950441D01*
X256851816Y-148058980D02*
X256701311Y-148035143D01*
X256620099Y-148060850D01*
X256576514Y-148092517D01*
X256483383Y-148193477D01*
X256421919Y-148338022D01*
X256374244Y-148639032D01*
X256399951Y-148720244D01*
X256431618Y-148763829D01*
X256500911Y-148813374D01*
X256651416Y-148837212D01*
X256732628Y-148811505D01*
X256776214Y-148779838D01*
X256825759Y-148710545D01*
X256855556Y-148522414D01*
X256829848Y-148441202D01*
X256798182Y-148397616D01*
X256728888Y-148348071D01*
X256578384Y-148324233D01*
X256497172Y-148349941D01*
X256453586Y-148381608D01*
X256404041Y-148450901D01*
X261134229Y-128935358D02*
X261203522Y-128984903D01*
X261316401Y-129002782D01*
X261435239Y-128983034D01*
X261522410Y-128919700D01*
X261571955Y-128850407D01*
X261633419Y-128705861D01*
X261651297Y-128592983D01*
X261637509Y-128436519D01*
X261611801Y-128355307D01*
X261548468Y-128268135D01*
X261441549Y-128212631D01*
X261366296Y-128200712D01*
X261247458Y-128220460D01*
X261203872Y-128252127D01*
X261162157Y-128515511D01*
X261312661Y-128539348D01*
X260877155Y-128123240D02*
X260752008Y-128913391D01*
X260425641Y-128051727D01*
X260300493Y-128841878D01*
X260049378Y-127992133D02*
X259924231Y-128782284D01*
X259736100Y-128752486D01*
X259629180Y-128696982D01*
X259565847Y-128609811D01*
X259540139Y-128528599D01*
X259526351Y-128372135D01*
X259544229Y-128259256D01*
X259605693Y-128114710D01*
X259655238Y-128045417D01*
X259742409Y-127982084D01*
X259861247Y-127962336D01*
X260049378Y-127992133D01*
X259226806Y-143291818D02*
X259101658Y-144081969D01*
X258800648Y-144034294D01*
X258731355Y-143984749D01*
X258699688Y-143941163D01*
X258673981Y-143859951D01*
X258691859Y-143747073D01*
X258741404Y-143677779D01*
X258784990Y-143646113D01*
X258866202Y-143620405D01*
X259167211Y-143668081D01*
X258161002Y-143932984D02*
X258085750Y-143921065D01*
X258016457Y-143871520D01*
X257984790Y-143827934D01*
X257959083Y-143746722D01*
X257945294Y-143590258D01*
X257975091Y-143402127D01*
X258036555Y-143257582D01*
X258086100Y-143188288D01*
X258129686Y-143156622D01*
X258210898Y-143130914D01*
X258286150Y-143142833D01*
X258355443Y-143192378D01*
X258387110Y-143235964D01*
X258412817Y-143317176D01*
X258426606Y-143473640D01*
X258396809Y-143661771D01*
X258335345Y-143806317D01*
X258285800Y-143875610D01*
X258242214Y-143907276D01*
X258161002Y-143932984D01*
X257634235Y-143849552D02*
X257107468Y-143766120D01*
X257571252Y-143029604D01*
X268708614Y-144793589D02*
X268583466Y-145583740D01*
X268282456Y-145536065D01*
X268213163Y-145486520D01*
X268181496Y-145442934D01*
X268155789Y-145361722D01*
X268173667Y-145248844D01*
X268223212Y-145179550D01*
X268266798Y-145147884D01*
X268348010Y-145122176D01*
X268649019Y-145169852D01*
X267504574Y-144602888D02*
X267956089Y-144674401D01*
X267730332Y-144638645D02*
X267605184Y-145428795D01*
X267698315Y-145327836D01*
X267785486Y-145264502D01*
X267866698Y-145238794D01*
X266743871Y-145022386D02*
X266827302Y-144495619D01*
X266884327Y-145353193D02*
X267161849Y-144818597D01*
X266672708Y-144741124D01*
X271870817Y-122149480D02*
X272074607Y-122567458D01*
X272322332Y-122220993D02*
X272197184Y-123011143D01*
X271896174Y-122963468D01*
X271826881Y-122913923D01*
X271795215Y-122870337D01*
X271769507Y-122789126D01*
X271787385Y-122676247D01*
X271836930Y-122606954D01*
X271880516Y-122575287D01*
X271961728Y-122549580D01*
X272262738Y-122597255D01*
X271534051Y-122327562D02*
X271157789Y-122267968D01*
X271645060Y-122113723D02*
X271256529Y-122862158D01*
X271118293Y-122030292D01*
X270805014Y-122790645D02*
X270742030Y-121970698D01*
X270502134Y-122511253D01*
X270441021Y-121923022D01*
X270127742Y-122683376D01*
X270695331Y-132249947D02*
X270570183Y-133040098D01*
X270269173Y-132992423D01*
X270199880Y-132942878D01*
X270168213Y-132899292D01*
X270142506Y-132818080D01*
X270160384Y-132705202D01*
X270209929Y-132635908D01*
X270253515Y-132604242D01*
X270334727Y-132578534D01*
X270635736Y-132626210D01*
X269829577Y-132845657D02*
X269785992Y-132877324D01*
X269704780Y-132903032D01*
X269516649Y-132873235D01*
X269447356Y-132823689D01*
X269415689Y-132780104D01*
X269389981Y-132698892D01*
X269401900Y-132623640D01*
X269457405Y-132516720D01*
X269980432Y-132136719D01*
X269491291Y-132059246D01*
X268738767Y-131940058D02*
X269190282Y-132011571D01*
X268964524Y-131975815D02*
X268839377Y-132765965D01*
X268932507Y-132665005D01*
X269019679Y-132601672D01*
X269100891Y-132575964D01*
X260816180Y-133256904D02*
X260691032Y-134047055D01*
X260390022Y-133999380D01*
X260320729Y-133949835D01*
X260289062Y-133906249D01*
X260263355Y-133825037D01*
X260281233Y-133712159D01*
X260330778Y-133642865D01*
X260374364Y-133611199D01*
X260455576Y-133585491D01*
X260756585Y-133633167D01*
X259750376Y-133898070D02*
X259675124Y-133886151D01*
X259605831Y-133836606D01*
X259574164Y-133793020D01*
X259548457Y-133711808D01*
X259534668Y-133555344D01*
X259564465Y-133367213D01*
X259625929Y-133222668D01*
X259675474Y-133153374D01*
X259719060Y-133121708D01*
X259800272Y-133096000D01*
X259875524Y-133107919D01*
X259944817Y-133157464D01*
X259976484Y-133201050D01*
X260002191Y-133282262D01*
X260015980Y-133438726D01*
X259986183Y-133626857D01*
X259924719Y-133771403D01*
X259875174Y-133840696D01*
X259831588Y-133872362D01*
X259750376Y-133898070D01*
X259223609Y-133814638D02*
X258734468Y-133737166D01*
X259045527Y-133477872D01*
X258932649Y-133459994D01*
X258863356Y-133410449D01*
X258831689Y-133366863D01*
X258805981Y-133285651D01*
X258835778Y-133097520D01*
X258885323Y-133028227D01*
X258928909Y-132996560D01*
X259010121Y-132970853D01*
X259235878Y-133006609D01*
X259305171Y-133056154D01*
X259336838Y-133099740D01*
X262405554Y-123221991D02*
X262280406Y-124012142D01*
X261979396Y-123964467D01*
X261910103Y-123914922D01*
X261878436Y-123871336D01*
X261852729Y-123790124D01*
X261870607Y-123677246D01*
X261920152Y-123607952D01*
X261963738Y-123576286D01*
X262044950Y-123550578D01*
X262345959Y-123598254D01*
X261339750Y-123863157D02*
X261264498Y-123851238D01*
X261195205Y-123801693D01*
X261163538Y-123758107D01*
X261137831Y-123676895D01*
X261124042Y-123520431D01*
X261153839Y-123332300D01*
X261215303Y-123187755D01*
X261264848Y-123118461D01*
X261308434Y-123086795D01*
X261389646Y-123061087D01*
X261464898Y-123073006D01*
X261534191Y-123122551D01*
X261565858Y-123166137D01*
X261591565Y-123247349D01*
X261605354Y-123403813D01*
X261575557Y-123591944D01*
X261514093Y-123736490D01*
X261464548Y-123805783D01*
X261420962Y-123837449D01*
X261339750Y-123863157D01*
X260587226Y-123743969D02*
X260511974Y-123732050D01*
X260442680Y-123682505D01*
X260411014Y-123638919D01*
X260385306Y-123557707D01*
X260371518Y-123401243D01*
X260401315Y-123213112D01*
X260462779Y-123068566D01*
X260512324Y-122999273D01*
X260555909Y-122967607D01*
X260637121Y-122941899D01*
X260712374Y-122953818D01*
X260781667Y-123003363D01*
X260813333Y-123046949D01*
X260839041Y-123128160D01*
X260852829Y-123284625D01*
X260823032Y-123472756D01*
X260761568Y-123617301D01*
X260712023Y-123686594D01*
X260668438Y-123718261D01*
X260587226Y-123743969D01*
X271410724Y-125419672D02*
X271480017Y-125469217D01*
X271592896Y-125487096D01*
X271711734Y-125467348D01*
X271798905Y-125404014D01*
X271848450Y-125334721D01*
X271909914Y-125190175D01*
X271927792Y-125077297D01*
X271914004Y-124920833D01*
X271888296Y-124839621D01*
X271824963Y-124752449D01*
X271718044Y-124696945D01*
X271642791Y-124685026D01*
X271523953Y-124704774D01*
X271480367Y-124736441D01*
X271438652Y-124999825D01*
X271589156Y-125023662D01*
X271153650Y-124607554D02*
X271028503Y-125397705D01*
X270702136Y-124536041D01*
X270576988Y-125326192D01*
X270325873Y-124476447D02*
X270200726Y-125266598D01*
X270012595Y-125236800D01*
X269905675Y-125181296D01*
X269842342Y-125094125D01*
X269816634Y-125012913D01*
X269802846Y-124856449D01*
X269820724Y-124743570D01*
X269882188Y-124599024D01*
X269931733Y-124529731D01*
X270018904Y-124466398D01*
X270137742Y-124446650D01*
X270325873Y-124476447D01*
X260021493Y-138274361D02*
X259896345Y-139064512D01*
X259595335Y-139016837D01*
X259526042Y-138967292D01*
X259494375Y-138923706D01*
X259468668Y-138842494D01*
X259486546Y-138729616D01*
X259536091Y-138660322D01*
X259579677Y-138628656D01*
X259660889Y-138602948D01*
X259961898Y-138650624D01*
X258955689Y-138915527D02*
X258880437Y-138903608D01*
X258811144Y-138854063D01*
X258779477Y-138810477D01*
X258753770Y-138729265D01*
X258739981Y-138572801D01*
X258769778Y-138384670D01*
X258831242Y-138240125D01*
X258880787Y-138170831D01*
X258924373Y-138139165D01*
X259005585Y-138113457D01*
X259080837Y-138125376D01*
X259150130Y-138174921D01*
X259181797Y-138218507D01*
X259207504Y-138299719D01*
X259221293Y-138456183D01*
X259191496Y-138644314D01*
X259130032Y-138788860D01*
X259080487Y-138858153D01*
X259036901Y-138889819D01*
X258955689Y-138915527D01*
X257977408Y-138760582D02*
X258353670Y-138820176D01*
X258450890Y-138449873D01*
X258407305Y-138481540D01*
X258326093Y-138507248D01*
X258137962Y-138477451D01*
X258068669Y-138427906D01*
X258037002Y-138384320D01*
X258011294Y-138303108D01*
X258041091Y-138114977D01*
X258090636Y-138045684D01*
X258134222Y-138014017D01*
X258215434Y-137988310D01*
X258403565Y-138018107D01*
X258472858Y-138067652D01*
X258504525Y-138111237D01*
X267913927Y-149811046D02*
X267788779Y-150601197D01*
X267487769Y-150553522D01*
X267418476Y-150503977D01*
X267386809Y-150460391D01*
X267361102Y-150379179D01*
X267378980Y-150266301D01*
X267428525Y-150197007D01*
X267472111Y-150165341D01*
X267553323Y-150139633D01*
X267854332Y-150187309D01*
X266709887Y-149620345D02*
X267161402Y-149691858D01*
X266935645Y-149656102D02*
X266810497Y-150446252D01*
X266903628Y-150345293D01*
X266990799Y-150281959D01*
X267072011Y-150256251D01*
X266095599Y-150333024D02*
X266020347Y-150321105D01*
X265951053Y-150271560D01*
X265919387Y-150227974D01*
X265893679Y-150146762D01*
X265879891Y-149990298D01*
X265909688Y-149802167D01*
X265971152Y-149657621D01*
X266020697Y-149588328D01*
X266064282Y-149556662D01*
X266145494Y-149530954D01*
X266220747Y-149542873D01*
X266290040Y-149592418D01*
X266321706Y-149636004D01*
X266347414Y-149717215D01*
X266361202Y-149873680D01*
X266331405Y-150061811D01*
X266269941Y-150206356D01*
X266220396Y-150275649D01*
X266176811Y-150307316D01*
X266095599Y-150333024D01*
X262802897Y-120713262D02*
X262677749Y-121503413D01*
X262376739Y-121455738D01*
X262307446Y-121406193D01*
X262275779Y-121362607D01*
X262250072Y-121281395D01*
X262267950Y-121168517D01*
X262317495Y-121099223D01*
X262361081Y-121067557D01*
X262442293Y-121041849D01*
X262743302Y-121089525D01*
X261737093Y-121354428D02*
X261661841Y-121342509D01*
X261592548Y-121292964D01*
X261560881Y-121249378D01*
X261535174Y-121168166D01*
X261521385Y-121011702D01*
X261551182Y-120823571D01*
X261612646Y-120679026D01*
X261662191Y-120609732D01*
X261705777Y-120578066D01*
X261786989Y-120552358D01*
X261862241Y-120564277D01*
X261931534Y-120613822D01*
X261963201Y-120657408D01*
X261988908Y-120738620D01*
X262002697Y-120895084D01*
X261972900Y-121083215D01*
X261911436Y-121227761D01*
X261861891Y-121297054D01*
X261818305Y-121328720D01*
X261737093Y-121354428D01*
X260846333Y-120403373D02*
X261297848Y-120474886D01*
X261072090Y-120439130D02*
X260946943Y-121229280D01*
X261040073Y-121128320D01*
X261127245Y-121064987D01*
X261208457Y-121039279D01*
X269900644Y-137267404D02*
X269775496Y-138057555D01*
X269474486Y-138009880D01*
X269405193Y-137960335D01*
X269373526Y-137916749D01*
X269347819Y-137835537D01*
X269365697Y-137722659D01*
X269415242Y-137653365D01*
X269458828Y-137621699D01*
X269540040Y-137595991D01*
X269841049Y-137643667D01*
X268696604Y-137076703D02*
X269148119Y-137148216D01*
X268922362Y-137112460D02*
X268797214Y-137902610D01*
X268890345Y-137801651D01*
X268977516Y-137738317D01*
X269058728Y-137712609D01*
X268320342Y-137017109D02*
X268169837Y-136993272D01*
X268088625Y-137018979D01*
X268045040Y-137050646D01*
X267951909Y-137151606D01*
X267890445Y-137296151D01*
X267842770Y-137597161D01*
X267868477Y-137678373D01*
X267900144Y-137721958D01*
X267969437Y-137771503D01*
X268119942Y-137795341D01*
X268201154Y-137769634D01*
X268244740Y-137737967D01*
X268294285Y-137668674D01*
X268324082Y-137480543D01*
X268298374Y-137399331D01*
X268266708Y-137355745D01*
X268197414Y-137306200D01*
X268046910Y-137282362D01*
X267965698Y-137308070D01*
X267922112Y-137339737D01*
X267872567Y-137409030D01*
X270297988Y-134758675D02*
X270172840Y-135548826D01*
X269871830Y-135501151D01*
X269802537Y-135451606D01*
X269770870Y-135408020D01*
X269745163Y-135326808D01*
X269763041Y-135213930D01*
X269812586Y-135144636D01*
X269856172Y-135112970D01*
X269937384Y-135087262D01*
X270238393Y-135134938D01*
X269432234Y-135354385D02*
X269388649Y-135386052D01*
X269307437Y-135411760D01*
X269119306Y-135381963D01*
X269050013Y-135332417D01*
X269018346Y-135288832D01*
X268992638Y-135207620D01*
X269004557Y-135132368D01*
X269060062Y-135025448D01*
X269583089Y-134645447D01*
X269093948Y-134567974D01*
X268479660Y-135280653D02*
X268404408Y-135268734D01*
X268335114Y-135219189D01*
X268303448Y-135175603D01*
X268277740Y-135094391D01*
X268263952Y-134937927D01*
X268293749Y-134749796D01*
X268355213Y-134605250D01*
X268404758Y-134535957D01*
X268448343Y-134504291D01*
X268529555Y-134478583D01*
X268604808Y-134490502D01*
X268674101Y-134540047D01*
X268705767Y-134583633D01*
X268731475Y-134664844D01*
X268745263Y-134821309D01*
X268715466Y-135009440D01*
X268654002Y-135153985D01*
X268604457Y-135223278D01*
X268560872Y-135254945D01*
X268479660Y-135280653D01*
X269503301Y-139776132D02*
X269378153Y-140566283D01*
X269077143Y-140518608D01*
X269007850Y-140469063D01*
X268976183Y-140425477D01*
X268950476Y-140344265D01*
X268968354Y-140231387D01*
X269017899Y-140162093D01*
X269061485Y-140130427D01*
X269142697Y-140104719D01*
X269443706Y-140152395D01*
X268299261Y-139585431D02*
X268750776Y-139656944D01*
X268525019Y-139621188D02*
X268399871Y-140411338D01*
X268493002Y-140310379D01*
X268580173Y-140247045D01*
X268661385Y-140221337D01*
X267776234Y-139965433D02*
X267845527Y-140014978D01*
X267877194Y-140058564D01*
X267902901Y-140139776D01*
X267896942Y-140177402D01*
X267847397Y-140246695D01*
X267803811Y-140278362D01*
X267722599Y-140304069D01*
X267572094Y-140280231D01*
X267502801Y-140230686D01*
X267471134Y-140187101D01*
X267445427Y-140105889D01*
X267451386Y-140068263D01*
X267500931Y-139998970D01*
X267544517Y-139967303D01*
X267625729Y-139941595D01*
X267776234Y-139965433D01*
X267857446Y-139939726D01*
X267901031Y-139908059D01*
X267950576Y-139838766D01*
X267974414Y-139688261D01*
X267948707Y-139607049D01*
X267917040Y-139563463D01*
X267847747Y-139513918D01*
X267697242Y-139490081D01*
X267616030Y-139515788D01*
X267572444Y-139547455D01*
X267522899Y-139616748D01*
X267499062Y-139767253D01*
X267524769Y-139848465D01*
X267556436Y-139892050D01*
X267625729Y-139941595D01*
X261531572Y-126426629D02*
X261600865Y-126476174D01*
X261713744Y-126494053D01*
X261832582Y-126474305D01*
X261919753Y-126410971D01*
X261969298Y-126341678D01*
X262030762Y-126197132D01*
X262048640Y-126084254D01*
X262034852Y-125927790D01*
X262009144Y-125846578D01*
X261945811Y-125759406D01*
X261838892Y-125703902D01*
X261763639Y-125691983D01*
X261644801Y-125711731D01*
X261601215Y-125743398D01*
X261559500Y-126006782D01*
X261710004Y-126030619D01*
X261274498Y-125614511D02*
X261149351Y-126404662D01*
X260822984Y-125542998D01*
X260697836Y-126333149D01*
X260446721Y-125483404D02*
X260321574Y-126273555D01*
X260133443Y-126243757D01*
X260026523Y-126188253D01*
X259963190Y-126101082D01*
X259937482Y-126019870D01*
X259923694Y-125863406D01*
X259941572Y-125750527D01*
X260003036Y-125605981D01*
X260052581Y-125536688D01*
X260139752Y-125473355D01*
X260258590Y-125453607D01*
X260446721Y-125483404D01*
X261213523Y-130748176D02*
X261088375Y-131538327D01*
X260787365Y-131490652D01*
X260718072Y-131441107D01*
X260686405Y-131397521D01*
X260660698Y-131316309D01*
X260678576Y-131203431D01*
X260728121Y-131134137D01*
X260771707Y-131102471D01*
X260852919Y-131076763D01*
X261153928Y-131124439D01*
X260147719Y-131389342D02*
X260072467Y-131377423D01*
X260003174Y-131327878D01*
X259971507Y-131284292D01*
X259945800Y-131203080D01*
X259932011Y-131046616D01*
X259961808Y-130858485D01*
X260023272Y-130713940D01*
X260072817Y-130644646D01*
X260116403Y-130612980D01*
X260197615Y-130587272D01*
X260272867Y-130599191D01*
X260342160Y-130648736D01*
X260373827Y-130692322D01*
X260399534Y-130773534D01*
X260413323Y-130929998D01*
X260383526Y-131118129D01*
X260322062Y-131262675D01*
X260272517Y-131331968D01*
X260228931Y-131363634D01*
X260147719Y-131389342D01*
X259595245Y-131224698D02*
X259551659Y-131256365D01*
X259470447Y-131282072D01*
X259282316Y-131252275D01*
X259213023Y-131202730D01*
X259181356Y-131159145D01*
X259155649Y-131077933D01*
X259167568Y-131002680D01*
X259223072Y-130895761D01*
X259746100Y-130515759D01*
X259256959Y-130438287D01*
X270963250Y-127149059D02*
X271167040Y-127567037D01*
X271414765Y-127220571D02*
X271289618Y-128010722D01*
X270988608Y-127963047D01*
X270919315Y-127913502D01*
X270887648Y-127869916D01*
X270861940Y-127788704D01*
X270879819Y-127675826D01*
X270929364Y-127606533D01*
X270972949Y-127574866D01*
X271054161Y-127549158D01*
X271355171Y-127596834D01*
X270656281Y-127139010D02*
X270549362Y-127083505D01*
X270361231Y-127053708D01*
X270280019Y-127079415D01*
X270236433Y-127111082D01*
X270186888Y-127180375D01*
X270174970Y-127255628D01*
X270200677Y-127336840D01*
X270232344Y-127380425D01*
X270301637Y-127429970D01*
X270446182Y-127491434D01*
X270515475Y-127540979D01*
X270547142Y-127584565D01*
X270572850Y-127665777D01*
X270560931Y-127741029D01*
X270511386Y-127810322D01*
X270467800Y-127841989D01*
X270386588Y-127867696D01*
X270198457Y-127837899D01*
X270091538Y-127782395D01*
X269859821Y-127784265D02*
X269408306Y-127712752D01*
X269759211Y-126958358D02*
X269634064Y-127748508D01*
%TO.C,REF\u002A\u002A*%
G36*
X264898143Y-132952531D02*
G01*
X264981964Y-133397155D01*
X265291249Y-133524653D01*
X265600535Y-133652151D01*
X265971575Y-133399846D01*
X266075486Y-133329596D01*
X266169416Y-133266872D01*
X266248981Y-133214538D01*
X266309799Y-133175457D01*
X266347486Y-133152493D01*
X266357750Y-133147542D01*
X266376239Y-133160276D01*
X266415749Y-133195482D01*
X266471851Y-133248662D01*
X266540116Y-133315318D01*
X266616115Y-133390954D01*
X266695421Y-133471072D01*
X266773604Y-133551174D01*
X266846236Y-133626764D01*
X266908888Y-133693345D01*
X266957132Y-133746418D01*
X266986539Y-133781487D01*
X266993570Y-133793223D01*
X266983452Y-133814860D01*
X266955088Y-133862262D01*
X266911458Y-133930793D01*
X266855547Y-134015815D01*
X266790335Y-134112693D01*
X266752548Y-134167950D01*
X266683672Y-134268848D01*
X266622469Y-134359899D01*
X266571907Y-134436570D01*
X266534957Y-134494328D01*
X266514587Y-134528643D01*
X266511526Y-134535854D01*
X266518465Y-134556348D01*
X266537380Y-134604113D01*
X266565416Y-134672432D01*
X266599720Y-134754589D01*
X266637438Y-134843870D01*
X266675716Y-134933558D01*
X266711699Y-135016938D01*
X266742535Y-135087294D01*
X266765368Y-135137910D01*
X266777346Y-135162071D01*
X266778053Y-135163022D01*
X266796860Y-135167636D01*
X266846947Y-135177928D01*
X266923122Y-135192887D01*
X267020194Y-135211501D01*
X267132972Y-135232759D01*
X267198771Y-135245018D01*
X267319279Y-135267962D01*
X267428126Y-135289795D01*
X267519805Y-135309322D01*
X267588810Y-135325348D01*
X267629633Y-135336679D01*
X267637840Y-135340274D01*
X267645877Y-135364606D01*
X267652362Y-135419559D01*
X267657299Y-135498708D01*
X267660693Y-135595626D01*
X267662547Y-135703887D01*
X267662867Y-135817065D01*
X267661656Y-135928735D01*
X267658919Y-136032468D01*
X267654660Y-136121841D01*
X267648884Y-136190426D01*
X267641596Y-136231797D01*
X267637224Y-136240410D01*
X267611093Y-136250733D01*
X267555722Y-136265492D01*
X267478436Y-136282952D01*
X267386559Y-136301380D01*
X267354487Y-136307341D01*
X267199853Y-136335666D01*
X267077704Y-136358476D01*
X266984002Y-136376680D01*
X266914713Y-136391183D01*
X266865800Y-136402892D01*
X266833226Y-136412715D01*
X266812957Y-136421556D01*
X266800955Y-136430324D01*
X266799276Y-136432057D01*
X266782513Y-136459971D01*
X266756943Y-136514295D01*
X266725117Y-136588377D01*
X266689589Y-136675565D01*
X266652912Y-136769208D01*
X266617640Y-136862652D01*
X266586325Y-136949247D01*
X266561522Y-137022340D01*
X266545783Y-137075278D01*
X266541661Y-137101411D01*
X266542005Y-137102326D01*
X266555970Y-137123686D01*
X266587651Y-137170684D01*
X266633720Y-137238427D01*
X266690847Y-137322023D01*
X266755702Y-137416582D01*
X266774172Y-137443454D01*
X266840028Y-137540875D01*
X266897979Y-137629763D01*
X266944867Y-137705012D01*
X266977536Y-137761520D01*
X266992829Y-137794181D01*
X266993570Y-137798193D01*
X266980721Y-137819284D01*
X266945217Y-137861064D01*
X266891622Y-137919045D01*
X266824500Y-137988735D01*
X266748416Y-138065645D01*
X266667933Y-138145283D01*
X266587616Y-138223161D01*
X266512028Y-138294786D01*
X266445734Y-138355670D01*
X266393298Y-138401321D01*
X266359284Y-138427250D01*
X266349874Y-138431483D01*
X266327972Y-138421512D01*
X266283129Y-138394620D01*
X266222650Y-138355336D01*
X266176118Y-138323717D01*
X266091804Y-138265698D01*
X265991955Y-138197384D01*
X265891802Y-138129179D01*
X265837956Y-138092675D01*
X265655700Y-137969400D01*
X265502710Y-138052120D01*
X265433011Y-138088359D01*
X265373743Y-138116526D01*
X265333640Y-138132591D01*
X265323432Y-138134826D01*
X265311158Y-138118322D01*
X265286942Y-138071682D01*
X265252592Y-137999209D01*
X265209917Y-137905206D01*
X265160723Y-137793974D01*
X265106819Y-137669815D01*
X265050013Y-137537032D01*
X264992111Y-137399927D01*
X264934922Y-137262802D01*
X264880253Y-137129958D01*
X264829913Y-137005698D01*
X264785709Y-136894325D01*
X264749448Y-136800139D01*
X264722938Y-136727444D01*
X264707987Y-136680541D01*
X264705583Y-136664433D01*
X264724640Y-136643886D01*
X264766365Y-136610533D01*
X264822035Y-136571302D01*
X264826707Y-136568199D01*
X264970593Y-136453023D01*
X265086612Y-136318653D01*
X265173759Y-136169384D01*
X265231028Y-136009513D01*
X265257415Y-135843337D01*
X265251914Y-135675152D01*
X265213519Y-135509255D01*
X265141224Y-135349942D01*
X265119955Y-135315087D01*
X265009325Y-135174337D01*
X264878631Y-135061314D01*
X264732393Y-134976603D01*
X264575137Y-134920794D01*
X264411386Y-134894474D01*
X264245662Y-134898230D01*
X264082491Y-134932650D01*
X263926394Y-134998323D01*
X263781896Y-135095835D01*
X263737198Y-135135413D01*
X263623441Y-135259303D01*
X263540547Y-135389724D01*
X263483685Y-135535915D01*
X263452016Y-135680688D01*
X263444198Y-135843460D01*
X263470267Y-136007040D01*
X263527574Y-136165898D01*
X263613473Y-136314506D01*
X263725315Y-136447335D01*
X263860452Y-136558856D01*
X263878212Y-136570611D01*
X263934479Y-136609108D01*
X263977252Y-136642463D01*
X263997701Y-136663760D01*
X263997998Y-136664433D01*
X263993608Y-136687471D01*
X263976205Y-136739757D01*
X263947597Y-136816990D01*
X263909594Y-136914868D01*
X263864003Y-137029091D01*
X263812632Y-137155358D01*
X263757291Y-137289367D01*
X263699787Y-137426818D01*
X263641930Y-137563408D01*
X263585527Y-137694837D01*
X263532387Y-137816805D01*
X263484319Y-137925009D01*
X263443130Y-138015149D01*
X263410630Y-138082923D01*
X263388626Y-138124030D01*
X263379765Y-138134826D01*
X263352689Y-138126419D01*
X263302026Y-138103872D01*
X263236512Y-138071213D01*
X263200488Y-138052120D01*
X263047497Y-137969400D01*
X262865241Y-138092675D01*
X262772204Y-138155828D01*
X262670344Y-138225327D01*
X262574891Y-138290765D01*
X262527079Y-138323717D01*
X262459834Y-138368873D01*
X262402893Y-138404657D01*
X262363683Y-138426538D01*
X262350948Y-138431163D01*
X262332412Y-138418685D01*
X262291388Y-138383852D01*
X262231854Y-138330278D01*
X262157787Y-138261583D01*
X262073164Y-138181381D01*
X262019644Y-138129886D01*
X261926010Y-138037886D01*
X261845088Y-137955599D01*
X261780152Y-137886545D01*
X261734471Y-137834244D01*
X261711318Y-137802216D01*
X261709097Y-137795716D01*
X261719405Y-137770994D01*
X261747890Y-137721005D01*
X261791392Y-137650812D01*
X261846752Y-137565475D01*
X261910809Y-137470056D01*
X261929026Y-137443454D01*
X261995402Y-137346767D01*
X262054951Y-137259717D01*
X262104345Y-137187195D01*
X262140254Y-137134093D01*
X262159348Y-137105303D01*
X262161193Y-137102326D01*
X262158434Y-137079382D01*
X262143791Y-137028936D01*
X262119816Y-136957641D01*
X262089063Y-136872147D01*
X262054085Y-136779107D01*
X262017436Y-136685174D01*
X261981668Y-136596999D01*
X261949335Y-136521234D01*
X261922991Y-136464531D01*
X261905187Y-136433543D01*
X261903922Y-136432057D01*
X261893035Y-136423201D01*
X261874647Y-136414443D01*
X261844723Y-136404877D01*
X261799226Y-136393596D01*
X261734120Y-136379693D01*
X261645368Y-136362263D01*
X261528936Y-136340398D01*
X261380787Y-136313191D01*
X261348711Y-136307341D01*
X261253643Y-136288974D01*
X261170764Y-136271005D01*
X261107399Y-136255169D01*
X261070871Y-136243200D01*
X261065973Y-136240410D01*
X261057902Y-136215672D01*
X261051342Y-136160390D01*
X261046296Y-136080989D01*
X261042770Y-135983896D01*
X261040768Y-135875538D01*
X261040293Y-135762340D01*
X261041352Y-135650728D01*
X261043947Y-135547129D01*
X261048083Y-135457968D01*
X261053766Y-135389672D01*
X261060998Y-135348666D01*
X261065358Y-135340274D01*
X261089631Y-135331808D01*
X261144903Y-135318035D01*
X261225667Y-135300150D01*
X261326417Y-135279348D01*
X261441646Y-135256823D01*
X261504427Y-135245018D01*
X261623542Y-135222751D01*
X261729764Y-135202579D01*
X261817902Y-135185515D01*
X261882763Y-135172569D01*
X261919155Y-135164755D01*
X261925145Y-135163022D01*
X261935268Y-135143490D01*
X261956667Y-135096443D01*
X261986490Y-135028603D01*
X262021884Y-134946691D01*
X262059997Y-134857428D01*
X262097976Y-134767535D01*
X262132969Y-134683735D01*
X262162123Y-134612747D01*
X262182586Y-134561294D01*
X262191506Y-134536097D01*
X262191672Y-134534996D01*
X262181560Y-134515119D01*
X262153212Y-134469377D01*
X262109606Y-134402317D01*
X262053723Y-134318484D01*
X261988542Y-134222426D01*
X261950650Y-134167250D01*
X261881604Y-134066081D01*
X261820279Y-133974230D01*
X261769666Y-133896344D01*
X261732758Y-133837069D01*
X261712547Y-133801051D01*
X261709628Y-133792977D01*
X261722176Y-133774184D01*
X261756866Y-133734057D01*
X261809266Y-133677093D01*
X261874945Y-133607785D01*
X261949473Y-133530631D01*
X262028416Y-133450125D01*
X262107346Y-133370763D01*
X262181829Y-133297040D01*
X262247435Y-133233452D01*
X262299733Y-133184494D01*
X262334290Y-133154661D01*
X262345851Y-133147542D01*
X262364675Y-133157553D01*
X262409698Y-133185678D01*
X262476542Y-133229054D01*
X262560830Y-133284818D01*
X262658185Y-133350106D01*
X262731622Y-133399846D01*
X263102662Y-133652151D01*
X263721234Y-133397155D01*
X263805054Y-132952531D01*
X263888875Y-132507907D01*
X264814323Y-132507907D01*
X264898143Y-132952531D01*
G37*
D12*
X264898143Y-132952531D02*
X264981964Y-133397155D01*
X265291249Y-133524653D01*
X265600535Y-133652151D01*
X265971575Y-133399846D01*
X266075486Y-133329596D01*
X266169416Y-133266872D01*
X266248981Y-133214538D01*
X266309799Y-133175457D01*
X266347486Y-133152493D01*
X266357750Y-133147542D01*
X266376239Y-133160276D01*
X266415749Y-133195482D01*
X266471851Y-133248662D01*
X266540116Y-133315318D01*
X266616115Y-133390954D01*
X266695421Y-133471072D01*
X266773604Y-133551174D01*
X266846236Y-133626764D01*
X266908888Y-133693345D01*
X266957132Y-133746418D01*
X266986539Y-133781487D01*
X266993570Y-133793223D01*
X266983452Y-133814860D01*
X266955088Y-133862262D01*
X266911458Y-133930793D01*
X266855547Y-134015815D01*
X266790335Y-134112693D01*
X266752548Y-134167950D01*
X266683672Y-134268848D01*
X266622469Y-134359899D01*
X266571907Y-134436570D01*
X266534957Y-134494328D01*
X266514587Y-134528643D01*
X266511526Y-134535854D01*
X266518465Y-134556348D01*
X266537380Y-134604113D01*
X266565416Y-134672432D01*
X266599720Y-134754589D01*
X266637438Y-134843870D01*
X266675716Y-134933558D01*
X266711699Y-135016938D01*
X266742535Y-135087294D01*
X266765368Y-135137910D01*
X266777346Y-135162071D01*
X266778053Y-135163022D01*
X266796860Y-135167636D01*
X266846947Y-135177928D01*
X266923122Y-135192887D01*
X267020194Y-135211501D01*
X267132972Y-135232759D01*
X267198771Y-135245018D01*
X267319279Y-135267962D01*
X267428126Y-135289795D01*
X267519805Y-135309322D01*
X267588810Y-135325348D01*
X267629633Y-135336679D01*
X267637840Y-135340274D01*
X267645877Y-135364606D01*
X267652362Y-135419559D01*
X267657299Y-135498708D01*
X267660693Y-135595626D01*
X267662547Y-135703887D01*
X267662867Y-135817065D01*
X267661656Y-135928735D01*
X267658919Y-136032468D01*
X267654660Y-136121841D01*
X267648884Y-136190426D01*
X267641596Y-136231797D01*
X267637224Y-136240410D01*
X267611093Y-136250733D01*
X267555722Y-136265492D01*
X267478436Y-136282952D01*
X267386559Y-136301380D01*
X267354487Y-136307341D01*
X267199853Y-136335666D01*
X267077704Y-136358476D01*
X266984002Y-136376680D01*
X266914713Y-136391183D01*
X266865800Y-136402892D01*
X266833226Y-136412715D01*
X266812957Y-136421556D01*
X266800955Y-136430324D01*
X266799276Y-136432057D01*
X266782513Y-136459971D01*
X266756943Y-136514295D01*
X266725117Y-136588377D01*
X266689589Y-136675565D01*
X266652912Y-136769208D01*
X266617640Y-136862652D01*
X266586325Y-136949247D01*
X266561522Y-137022340D01*
X266545783Y-137075278D01*
X266541661Y-137101411D01*
X266542005Y-137102326D01*
X266555970Y-137123686D01*
X266587651Y-137170684D01*
X266633720Y-137238427D01*
X266690847Y-137322023D01*
X266755702Y-137416582D01*
X266774172Y-137443454D01*
X266840028Y-137540875D01*
X266897979Y-137629763D01*
X266944867Y-137705012D01*
X266977536Y-137761520D01*
X266992829Y-137794181D01*
X266993570Y-137798193D01*
X266980721Y-137819284D01*
X266945217Y-137861064D01*
X266891622Y-137919045D01*
X266824500Y-137988735D01*
X266748416Y-138065645D01*
X266667933Y-138145283D01*
X266587616Y-138223161D01*
X266512028Y-138294786D01*
X266445734Y-138355670D01*
X266393298Y-138401321D01*
X266359284Y-138427250D01*
X266349874Y-138431483D01*
X266327972Y-138421512D01*
X266283129Y-138394620D01*
X266222650Y-138355336D01*
X266176118Y-138323717D01*
X266091804Y-138265698D01*
X265991955Y-138197384D01*
X265891802Y-138129179D01*
X265837956Y-138092675D01*
X265655700Y-137969400D01*
X265502710Y-138052120D01*
X265433011Y-138088359D01*
X265373743Y-138116526D01*
X265333640Y-138132591D01*
X265323432Y-138134826D01*
X265311158Y-138118322D01*
X265286942Y-138071682D01*
X265252592Y-137999209D01*
X265209917Y-137905206D01*
X265160723Y-137793974D01*
X265106819Y-137669815D01*
X265050013Y-137537032D01*
X264992111Y-137399927D01*
X264934922Y-137262802D01*
X264880253Y-137129958D01*
X264829913Y-137005698D01*
X264785709Y-136894325D01*
X264749448Y-136800139D01*
X264722938Y-136727444D01*
X264707987Y-136680541D01*
X264705583Y-136664433D01*
X264724640Y-136643886D01*
X264766365Y-136610533D01*
X264822035Y-136571302D01*
X264826707Y-136568199D01*
X264970593Y-136453023D01*
X265086612Y-136318653D01*
X265173759Y-136169384D01*
X265231028Y-136009513D01*
X265257415Y-135843337D01*
X265251914Y-135675152D01*
X265213519Y-135509255D01*
X265141224Y-135349942D01*
X265119955Y-135315087D01*
X265009325Y-135174337D01*
X264878631Y-135061314D01*
X264732393Y-134976603D01*
X264575137Y-134920794D01*
X264411386Y-134894474D01*
X264245662Y-134898230D01*
X264082491Y-134932650D01*
X263926394Y-134998323D01*
X263781896Y-135095835D01*
X263737198Y-135135413D01*
X263623441Y-135259303D01*
X263540547Y-135389724D01*
X263483685Y-135535915D01*
X263452016Y-135680688D01*
X263444198Y-135843460D01*
X263470267Y-136007040D01*
X263527574Y-136165898D01*
X263613473Y-136314506D01*
X263725315Y-136447335D01*
X263860452Y-136558856D01*
X263878212Y-136570611D01*
X263934479Y-136609108D01*
X263977252Y-136642463D01*
X263997701Y-136663760D01*
X263997998Y-136664433D01*
X263993608Y-136687471D01*
X263976205Y-136739757D01*
X263947597Y-136816990D01*
X263909594Y-136914868D01*
X263864003Y-137029091D01*
X263812632Y-137155358D01*
X263757291Y-137289367D01*
X263699787Y-137426818D01*
X263641930Y-137563408D01*
X263585527Y-137694837D01*
X263532387Y-137816805D01*
X263484319Y-137925009D01*
X263443130Y-138015149D01*
X263410630Y-138082923D01*
X263388626Y-138124030D01*
X263379765Y-138134826D01*
X263352689Y-138126419D01*
X263302026Y-138103872D01*
X263236512Y-138071213D01*
X263200488Y-138052120D01*
X263047497Y-137969400D01*
X262865241Y-138092675D01*
X262772204Y-138155828D01*
X262670344Y-138225327D01*
X262574891Y-138290765D01*
X262527079Y-138323717D01*
X262459834Y-138368873D01*
X262402893Y-138404657D01*
X262363683Y-138426538D01*
X262350948Y-138431163D01*
X262332412Y-138418685D01*
X262291388Y-138383852D01*
X262231854Y-138330278D01*
X262157787Y-138261583D01*
X262073164Y-138181381D01*
X262019644Y-138129886D01*
X261926010Y-138037886D01*
X261845088Y-137955599D01*
X261780152Y-137886545D01*
X261734471Y-137834244D01*
X261711318Y-137802216D01*
X261709097Y-137795716D01*
X261719405Y-137770994D01*
X261747890Y-137721005D01*
X261791392Y-137650812D01*
X261846752Y-137565475D01*
X261910809Y-137470056D01*
X261929026Y-137443454D01*
X261995402Y-137346767D01*
X262054951Y-137259717D01*
X262104345Y-137187195D01*
X262140254Y-137134093D01*
X262159348Y-137105303D01*
X262161193Y-137102326D01*
X262158434Y-137079382D01*
X262143791Y-137028936D01*
X262119816Y-136957641D01*
X262089063Y-136872147D01*
X262054085Y-136779107D01*
X262017436Y-136685174D01*
X261981668Y-136596999D01*
X261949335Y-136521234D01*
X261922991Y-136464531D01*
X261905187Y-136433543D01*
X261903922Y-136432057D01*
X261893035Y-136423201D01*
X261874647Y-136414443D01*
X261844723Y-136404877D01*
X261799226Y-136393596D01*
X261734120Y-136379693D01*
X261645368Y-136362263D01*
X261528936Y-136340398D01*
X261380787Y-136313191D01*
X261348711Y-136307341D01*
X261253643Y-136288974D01*
X261170764Y-136271005D01*
X261107399Y-136255169D01*
X261070871Y-136243200D01*
X261065973Y-136240410D01*
X261057902Y-136215672D01*
X261051342Y-136160390D01*
X261046296Y-136080989D01*
X261042770Y-135983896D01*
X261040768Y-135875538D01*
X261040293Y-135762340D01*
X261041352Y-135650728D01*
X261043947Y-135547129D01*
X261048083Y-135457968D01*
X261053766Y-135389672D01*
X261060998Y-135348666D01*
X261065358Y-135340274D01*
X261089631Y-135331808D01*
X261144903Y-135318035D01*
X261225667Y-135300150D01*
X261326417Y-135279348D01*
X261441646Y-135256823D01*
X261504427Y-135245018D01*
X261623542Y-135222751D01*
X261729764Y-135202579D01*
X261817902Y-135185515D01*
X261882763Y-135172569D01*
X261919155Y-135164755D01*
X261925145Y-135163022D01*
X261935268Y-135143490D01*
X261956667Y-135096443D01*
X261986490Y-135028603D01*
X262021884Y-134946691D01*
X262059997Y-134857428D01*
X262097976Y-134767535D01*
X262132969Y-134683735D01*
X262162123Y-134612747D01*
X262182586Y-134561294D01*
X262191506Y-134536097D01*
X262191672Y-134534996D01*
X262181560Y-134515119D01*
X262153212Y-134469377D01*
X262109606Y-134402317D01*
X262053723Y-134318484D01*
X261988542Y-134222426D01*
X261950650Y-134167250D01*
X261881604Y-134066081D01*
X261820279Y-133974230D01*
X261769666Y-133896344D01*
X261732758Y-133837069D01*
X261712547Y-133801051D01*
X261709628Y-133792977D01*
X261722176Y-133774184D01*
X261756866Y-133734057D01*
X261809266Y-133677093D01*
X261874945Y-133607785D01*
X261949473Y-133530631D01*
X262028416Y-133450125D01*
X262107346Y-133370763D01*
X262181829Y-133297040D01*
X262247435Y-133233452D01*
X262299733Y-133184494D01*
X262334290Y-133154661D01*
X262345851Y-133147542D01*
X262364675Y-133157553D01*
X262409698Y-133185678D01*
X262476542Y-133229054D01*
X262560830Y-133284818D01*
X262658185Y-133350106D01*
X262731622Y-133399846D01*
X263102662Y-133652151D01*
X263721234Y-133397155D01*
X263805054Y-132952531D01*
X263888875Y-132507907D01*
X264814323Y-132507907D01*
X264898143Y-132952531D01*
%TO.C,G\u002A\u002A\u002A*%
G36*
X178220156Y-145557875D02*
G01*
X178147420Y-145823096D01*
X178051720Y-146167559D01*
X177945023Y-146548402D01*
X177839293Y-146922765D01*
X177830177Y-146954875D01*
X177582170Y-147828000D01*
X176979877Y-147828000D01*
X176853884Y-147399375D01*
X176770611Y-147112387D01*
X176676308Y-146781385D01*
X176577028Y-146428333D01*
X176478825Y-146075195D01*
X176387753Y-145743934D01*
X176309868Y-145456515D01*
X176251222Y-145234901D01*
X176217871Y-145101057D01*
X176212500Y-145072538D01*
X176267470Y-145046066D01*
X176401085Y-145044681D01*
X176413875Y-145045851D01*
X176476972Y-145050590D01*
X176527428Y-145060010D01*
X176570621Y-145088023D01*
X176611931Y-145148542D01*
X176656737Y-145255479D01*
X176710417Y-145422747D01*
X176778350Y-145664259D01*
X176865915Y-145993927D01*
X176978492Y-146425665D01*
X177042857Y-146672722D01*
X177122519Y-146961247D01*
X177195150Y-147193558D01*
X177253461Y-147348434D01*
X177290167Y-147404656D01*
X177293648Y-147402972D01*
X177323849Y-147327962D01*
X177379695Y-147150026D01*
X177455352Y-146889273D01*
X177544988Y-146565814D01*
X177642772Y-146199761D01*
X177644579Y-146192875D01*
X177948566Y-145034000D01*
X178362129Y-145034000D01*
X178220156Y-145557875D01*
G37*
G36*
X179959000Y-145034000D02*
G01*
X179959000Y-147447000D01*
X180276500Y-147447000D01*
X180464452Y-147451161D01*
X180558177Y-147476752D01*
X180590434Y-147543426D01*
X180594000Y-147637500D01*
X180594000Y-147828000D01*
X178816000Y-147828000D01*
X178816000Y-147447000D01*
X179578000Y-147447000D01*
X179578000Y-146431000D01*
X179576597Y-146087951D01*
X179572721Y-145794378D01*
X179566868Y-145571533D01*
X179559536Y-145440669D01*
X179554233Y-145415000D01*
X179485478Y-145434221D01*
X179339402Y-145482769D01*
X179260500Y-145510250D01*
X179054654Y-145578396D01*
X178940460Y-145595044D01*
X178891061Y-145554363D01*
X178879606Y-145450525D01*
X178879500Y-145427544D01*
X178895454Y-145314300D01*
X178963818Y-145236742D01*
X179115343Y-145165704D01*
X179181125Y-145141479D01*
X179414798Y-145075617D01*
X179646725Y-145037501D01*
X179720875Y-145033685D01*
X179959000Y-145034000D01*
G37*
G36*
X156823493Y-116138084D02*
G01*
X157273520Y-116159126D01*
X157652019Y-116194953D01*
X157702250Y-116201904D01*
X158608990Y-116382767D01*
X159487576Y-116652180D01*
X160307807Y-116999540D01*
X160896550Y-117323256D01*
X161263849Y-117562020D01*
X161693953Y-117861065D01*
X162154539Y-118196533D01*
X162613284Y-118544562D01*
X163037866Y-118881294D01*
X163280281Y-119082866D01*
X163501463Y-119261173D01*
X163699281Y-119402527D01*
X163847161Y-119488888D01*
X163904981Y-119507000D01*
X164001281Y-119468699D01*
X164171100Y-119364291D01*
X164390845Y-119209516D01*
X164636928Y-119020115D01*
X164648064Y-119011174D01*
X165528097Y-118339756D01*
X166372063Y-117774349D01*
X167198400Y-117306257D01*
X168025546Y-116926782D01*
X168871941Y-116627226D01*
X169756023Y-116398894D01*
X170464606Y-116267623D01*
X170794824Y-116231333D01*
X171210251Y-116208782D01*
X171670871Y-116199969D01*
X172136668Y-116204895D01*
X172567623Y-116223557D01*
X172923720Y-116255955D01*
X173005750Y-116267676D01*
X173949783Y-116471946D01*
X174912226Y-116781229D01*
X175867358Y-117182833D01*
X176789458Y-117664066D01*
X177652803Y-118212238D01*
X178431672Y-118814654D01*
X178749752Y-119101963D01*
X179311442Y-119712405D01*
X179762129Y-120372110D01*
X180105429Y-121089101D01*
X180344958Y-121871403D01*
X180484334Y-122727038D01*
X180507292Y-123001226D01*
X180496332Y-123733847D01*
X180367757Y-124437823D01*
X180126990Y-125100704D01*
X179779457Y-125710039D01*
X179330582Y-126253378D01*
X178936996Y-126605141D01*
X178470982Y-126936710D01*
X177954763Y-127246729D01*
X177434518Y-127509432D01*
X177006250Y-127682321D01*
X176800241Y-127750097D01*
X176621232Y-127797703D01*
X176439287Y-127828625D01*
X176224467Y-127846348D01*
X175946833Y-127854360D01*
X175576449Y-127856147D01*
X175514000Y-127856097D01*
X175128580Y-127854055D01*
X174840307Y-127846577D01*
X174619341Y-127830079D01*
X174435843Y-127800975D01*
X174259973Y-127755679D01*
X174061892Y-127690607D01*
X174022687Y-127676907D01*
X173456194Y-127439499D01*
X172932880Y-127145516D01*
X172470162Y-126808979D01*
X172085455Y-126443909D01*
X171796179Y-126064328D01*
X171646950Y-125764413D01*
X171501363Y-125210127D01*
X171461545Y-124632528D01*
X171522697Y-124055305D01*
X171680025Y-123502151D01*
X171928731Y-122996755D01*
X172264019Y-122562810D01*
X172303146Y-122523250D01*
X172555055Y-122306377D01*
X172837180Y-122136047D01*
X173132750Y-122006259D01*
X173472467Y-121876805D01*
X173721575Y-121797586D01*
X173906068Y-121768520D01*
X174051942Y-121789519D01*
X174185191Y-121860501D01*
X174331811Y-121981378D01*
X174354874Y-122002268D01*
X174476296Y-122095116D01*
X174525760Y-122094562D01*
X174503154Y-122011926D01*
X174408366Y-121858531D01*
X174356982Y-121788732D01*
X174055311Y-121491406D01*
X173687598Y-121288628D01*
X173282144Y-121194635D01*
X173166195Y-121189750D01*
X172756583Y-121250521D01*
X172346457Y-121423538D01*
X171949605Y-121694855D01*
X171579814Y-122050524D01*
X171250874Y-122476600D01*
X170976572Y-122959136D01*
X170770697Y-123484186D01*
X170720298Y-123663716D01*
X170665646Y-123979146D01*
X170635167Y-124368576D01*
X170628940Y-124787386D01*
X170647044Y-125190956D01*
X170689560Y-125534664D01*
X170716750Y-125658183D01*
X170933036Y-126244039D01*
X171258155Y-126778293D01*
X171696353Y-127266443D01*
X172251879Y-127713989D01*
X172362966Y-127789535D01*
X173072058Y-128200736D01*
X173800736Y-128501206D01*
X174568389Y-128696518D01*
X175394409Y-128792242D01*
X175895000Y-128804400D01*
X176703660Y-128755933D01*
X177443922Y-128614336D01*
X178132184Y-128372668D01*
X178784844Y-128023983D01*
X179418302Y-127561339D01*
X179931678Y-127095250D01*
X180360586Y-126643927D01*
X180696786Y-126218487D01*
X180960911Y-125787522D01*
X181173597Y-125319624D01*
X181266679Y-125063250D01*
X181398694Y-124532312D01*
X181469599Y-123923400D01*
X181480301Y-123269369D01*
X181431706Y-122603070D01*
X181324723Y-121957359D01*
X181164930Y-121378593D01*
X181103276Y-121180276D01*
X181070104Y-121034121D01*
X181070820Y-120977513D01*
X181141767Y-120979935D01*
X181307072Y-121012504D01*
X181539327Y-121069275D01*
X181721859Y-121118765D01*
X182320538Y-121318115D01*
X182845186Y-121563586D01*
X183302369Y-121864460D01*
X183698654Y-122230018D01*
X184040607Y-122669540D01*
X184334795Y-123192309D01*
X184587784Y-123807604D01*
X184806141Y-124524708D01*
X184996433Y-125352901D01*
X185096693Y-125888750D01*
X185190628Y-126414029D01*
X185272570Y-126835412D01*
X185348412Y-127174736D01*
X185424049Y-127453839D01*
X185505376Y-127694560D01*
X185598286Y-127918734D01*
X185704132Y-128139207D01*
X186094005Y-128793738D01*
X186547841Y-129338629D01*
X187064974Y-129773566D01*
X187644736Y-130098235D01*
X188286461Y-130312319D01*
X188989481Y-130415505D01*
X189753129Y-130407477D01*
X190348807Y-130331156D01*
X190764521Y-130233775D01*
X191281171Y-130069128D01*
X191893299Y-129839294D01*
X192595446Y-129546352D01*
X193382151Y-129192383D01*
X193576590Y-129101564D01*
X193894367Y-128954517D01*
X194170342Y-128831265D01*
X194384949Y-128740188D01*
X194518623Y-128689666D01*
X194553732Y-128683065D01*
X194545834Y-128755107D01*
X194491928Y-128923235D01*
X194399673Y-129168432D01*
X194276730Y-129471682D01*
X194130760Y-129813966D01*
X193969424Y-130176270D01*
X193836896Y-130462536D01*
X193406741Y-131271785D01*
X192888320Y-132074906D01*
X192307703Y-132835878D01*
X191690961Y-133518680D01*
X191467941Y-133735763D01*
X191150367Y-134017129D01*
X190754102Y-134343108D01*
X190308508Y-134691577D01*
X189842944Y-135040412D01*
X189386774Y-135367489D01*
X188969356Y-135650685D01*
X188705454Y-135817316D01*
X188109099Y-136152168D01*
X187436894Y-136486303D01*
X186737949Y-136796341D01*
X186213750Y-137003454D01*
X185450057Y-137256520D01*
X184602765Y-137483202D01*
X183697515Y-137679941D01*
X182759950Y-137843178D01*
X181815711Y-137969355D01*
X180890441Y-138054914D01*
X180009782Y-138096296D01*
X179199375Y-138089943D01*
X178657153Y-138052127D01*
X178372022Y-138019031D01*
X178024407Y-137972754D01*
X177639919Y-137917352D01*
X177244172Y-137856883D01*
X176862777Y-137795405D01*
X176521345Y-137736975D01*
X176245490Y-137685651D01*
X176060822Y-137645490D01*
X176022000Y-137634672D01*
X175978381Y-137595945D01*
X175947981Y-137498809D01*
X175927829Y-137323378D01*
X175914954Y-137049769D01*
X175910762Y-136890194D01*
X175840821Y-135939468D01*
X175675489Y-135071823D01*
X175414900Y-134287547D01*
X175059184Y-133586927D01*
X174608475Y-132970252D01*
X174062903Y-132437810D01*
X173767750Y-132212508D01*
X173170611Y-131859156D01*
X172481693Y-131568025D01*
X171721506Y-131342005D01*
X170910563Y-131183989D01*
X170069373Y-131096869D01*
X169218448Y-131083536D01*
X168378299Y-131146881D01*
X167569437Y-131289797D01*
X167442367Y-131320729D01*
X166666678Y-131560430D01*
X165988149Y-131864860D01*
X165389818Y-132243022D01*
X164875669Y-132683250D01*
X164448261Y-133152225D01*
X164076429Y-133658904D01*
X163769572Y-134183798D01*
X163537089Y-134707419D01*
X163388378Y-135210281D01*
X163332837Y-135672895D01*
X163341013Y-135865377D01*
X163446961Y-136308758D01*
X163664260Y-136747632D01*
X163978102Y-137162899D01*
X164373678Y-137535461D01*
X164836181Y-137846220D01*
X164906294Y-137884162D01*
X165251548Y-138044305D01*
X165564714Y-138134004D01*
X165883211Y-138156395D01*
X166244458Y-138114615D01*
X166624000Y-138028153D01*
X166927233Y-137940413D01*
X167255460Y-137830951D01*
X167586749Y-137708851D01*
X167899166Y-137583196D01*
X168170775Y-137463069D01*
X168379645Y-137357553D01*
X168503840Y-137275730D01*
X168528773Y-137239375D01*
X168527528Y-137201113D01*
X168510818Y-137177113D01*
X168459561Y-137168532D01*
X168354677Y-137176526D01*
X168177086Y-137202253D01*
X167907708Y-137246868D01*
X167632083Y-137293741D01*
X166979877Y-137382393D01*
X166421799Y-137406002D01*
X165940834Y-137360969D01*
X165519963Y-137243695D01*
X165142170Y-137050584D01*
X164790437Y-136778035D01*
X164675768Y-136668638D01*
X164407107Y-136344796D01*
X164248843Y-136010378D01*
X164199359Y-135650384D01*
X164257035Y-135249812D01*
X164420252Y-134793661D01*
X164463201Y-134699173D01*
X164801410Y-134094231D01*
X165216223Y-133548211D01*
X165688778Y-133081973D01*
X166200212Y-132716376D01*
X166313646Y-132652814D01*
X167028757Y-132338146D01*
X167814030Y-132111631D01*
X168647798Y-131973687D01*
X169508395Y-131924736D01*
X170374155Y-131965197D01*
X171223414Y-132095492D01*
X172034504Y-132316039D01*
X172583242Y-132531202D01*
X173202595Y-132866895D01*
X173719787Y-133273392D01*
X174140571Y-133757660D01*
X174470700Y-134326670D01*
X174715927Y-134987389D01*
X174766744Y-135176074D01*
X174843984Y-135595813D01*
X174893452Y-136104567D01*
X174915164Y-136667428D01*
X174909137Y-137249487D01*
X174875387Y-137815837D01*
X174813930Y-138331570D01*
X174765134Y-138595892D01*
X174652163Y-139056255D01*
X174508091Y-139550353D01*
X174344365Y-140045143D01*
X174172438Y-140507581D01*
X174003759Y-140904623D01*
X173879414Y-141151956D01*
X173406043Y-141884486D01*
X172824318Y-142594793D01*
X172152687Y-143267725D01*
X171409599Y-143888131D01*
X170613503Y-144440862D01*
X169782846Y-144910766D01*
X168936078Y-145282693D01*
X168781121Y-145338854D01*
X168199782Y-145513094D01*
X167521071Y-145667265D01*
X166773486Y-145798215D01*
X165985523Y-145902794D01*
X165185679Y-145977849D01*
X164402452Y-146020229D01*
X163664337Y-146026783D01*
X162999832Y-145994358D01*
X162919929Y-145987075D01*
X161895050Y-145833403D01*
X160842733Y-145572403D01*
X159786857Y-145212921D01*
X158751298Y-144763799D01*
X157759935Y-144233883D01*
X157150012Y-143849933D01*
X156546059Y-143429016D01*
X155892954Y-142946699D01*
X155229810Y-142432891D01*
X154595743Y-141917503D01*
X154338110Y-141699710D01*
X154145034Y-141531166D01*
X153996889Y-141405414D01*
X153871677Y-141319337D01*
X153747397Y-141269823D01*
X153602049Y-141253757D01*
X153413632Y-141268025D01*
X153160147Y-141309513D01*
X152819595Y-141375107D01*
X152492604Y-141438478D01*
X151304416Y-141634387D01*
X150204954Y-141752092D01*
X149197105Y-141791459D01*
X148283756Y-141752351D01*
X147632730Y-141666204D01*
X146933528Y-141528893D01*
X146332178Y-141381274D01*
X145799542Y-141214631D01*
X145306484Y-141020246D01*
X145002250Y-140879217D01*
X144154062Y-140395198D01*
X143384961Y-139813382D01*
X142697536Y-139137353D01*
X142094376Y-138370691D01*
X141578074Y-137516978D01*
X141151217Y-136579797D01*
X140816397Y-135562728D01*
X140649166Y-134859613D01*
X140471088Y-133852267D01*
X140370127Y-132930070D01*
X140348771Y-132075414D01*
X140409510Y-131270686D01*
X140554831Y-130498278D01*
X140787224Y-129740579D01*
X141109177Y-128979978D01*
X141523179Y-128198865D01*
X141611815Y-128047750D01*
X142203127Y-127169884D01*
X142880111Y-126375151D01*
X143633872Y-125670870D01*
X144455515Y-125064362D01*
X145336146Y-124562949D01*
X146266871Y-124173952D01*
X146354615Y-124144096D01*
X147183019Y-123910795D01*
X148037426Y-123750777D01*
X148899569Y-123663379D01*
X149751182Y-123647940D01*
X150573998Y-123703800D01*
X151349749Y-123830296D01*
X152060169Y-124026769D01*
X152686990Y-124292557D01*
X152844500Y-124379000D01*
X153264625Y-124669092D01*
X153705040Y-125054942D01*
X154144826Y-125512177D01*
X154563063Y-126016428D01*
X154938831Y-126543322D01*
X155251212Y-127068490D01*
X155383539Y-127336954D01*
X155624033Y-128010075D01*
X155757913Y-128718947D01*
X155781777Y-129434222D01*
X155701725Y-130082017D01*
X155503273Y-130835870D01*
X155238772Y-131511911D01*
X154913872Y-132101184D01*
X154534220Y-132594729D01*
X154105465Y-132983586D01*
X153726032Y-133215682D01*
X153231030Y-133401125D01*
X152694309Y-133500911D01*
X152141130Y-133517690D01*
X151596756Y-133454115D01*
X151086448Y-133312837D01*
X150635470Y-133096509D01*
X150320375Y-132858167D01*
X150208279Y-132742579D01*
X150146328Y-132633947D01*
X150119810Y-132488558D01*
X150114010Y-132262700D01*
X150114000Y-132245023D01*
X150102175Y-131988441D01*
X150060405Y-131853668D01*
X149979241Y-131837180D01*
X149849237Y-131935450D01*
X149705278Y-132092504D01*
X149498254Y-132394411D01*
X149392157Y-132689819D01*
X149393037Y-132958640D01*
X149419373Y-133041850D01*
X149564802Y-133266581D01*
X149808104Y-133504999D01*
X150123768Y-133740707D01*
X150486281Y-133957307D01*
X150870131Y-134138403D01*
X151249806Y-134267598D01*
X151371250Y-134296342D01*
X151791709Y-134351571D01*
X152277927Y-134365197D01*
X152776194Y-134338702D01*
X153232801Y-134273568D01*
X153376423Y-134241001D01*
X154083880Y-133996724D01*
X154729966Y-133645540D01*
X155307492Y-133195406D01*
X155809269Y-132654279D01*
X156228106Y-132030116D01*
X156556812Y-131330872D01*
X156788199Y-130564505D01*
X156816013Y-130434690D01*
X156884508Y-129944862D01*
X156909576Y-129399340D01*
X156893007Y-128838407D01*
X156836595Y-128302344D01*
X156742131Y-127831435D01*
X156692886Y-127666750D01*
X156406087Y-126978522D01*
X156017029Y-126289644D01*
X155543888Y-125621143D01*
X155004838Y-124994042D01*
X154418055Y-124429370D01*
X153801714Y-123948150D01*
X153173990Y-123571410D01*
X153136679Y-123552744D01*
X152354500Y-123223565D01*
X151532958Y-122993716D01*
X150649560Y-122857534D01*
X150254630Y-122826903D01*
X149981287Y-122807953D01*
X149759853Y-122786284D01*
X149617942Y-122764978D01*
X149580556Y-122751680D01*
X149576747Y-122660960D01*
X149598777Y-122472058D01*
X149641660Y-122209993D01*
X149700409Y-121899784D01*
X149770036Y-121566452D01*
X149845556Y-121235015D01*
X149921981Y-120930493D01*
X149993119Y-120681750D01*
X150236891Y-120017256D01*
X150538470Y-119380899D01*
X150882812Y-118798663D01*
X151254872Y-118296535D01*
X151564069Y-117968387D01*
X152190098Y-117456112D01*
X152889905Y-117008263D01*
X153634819Y-116639171D01*
X154396170Y-116363164D01*
X155098750Y-116201789D01*
X155439564Y-116163678D01*
X155866982Y-116140358D01*
X156341469Y-116131827D01*
X156823493Y-116138084D01*
G37*
G36*
X177750717Y-140297347D02*
G01*
X177764204Y-140299324D01*
X177981614Y-140356453D01*
X178173908Y-140446271D01*
X178212156Y-140472877D01*
X178379250Y-140604314D01*
X178239309Y-140753275D01*
X178099367Y-140902236D01*
X177924006Y-140777368D01*
X177682843Y-140675753D01*
X177403018Y-140661914D01*
X177138968Y-140737246D01*
X177104029Y-140756356D01*
X176888773Y-140939455D01*
X176756790Y-141193112D01*
X176701040Y-141533282D01*
X176698238Y-141676001D01*
X176742646Y-142096688D01*
X176866235Y-142420651D01*
X177067263Y-142645958D01*
X177343984Y-142770674D01*
X177694657Y-142792868D01*
X177704750Y-142792060D01*
X177907496Y-142771850D01*
X178064455Y-142750364D01*
X178110300Y-142740918D01*
X178192533Y-142775901D01*
X178246304Y-142885715D01*
X178264624Y-143013897D01*
X178206206Y-143073324D01*
X178158253Y-143087533D01*
X177939220Y-143127200D01*
X177692654Y-143153967D01*
X177469668Y-143163808D01*
X177323750Y-143153259D01*
X177151041Y-143114708D01*
X177058769Y-143094796D01*
X176861651Y-143003569D01*
X176654853Y-142829775D01*
X176475682Y-142608836D01*
X176395358Y-142464877D01*
X176311846Y-142183063D01*
X176278356Y-141806731D01*
X176277394Y-141728592D01*
X176322325Y-141262146D01*
X176455875Y-140878817D01*
X176671766Y-140584637D01*
X176963722Y-140385643D01*
X177325464Y-140287868D01*
X177750717Y-140297347D01*
G37*
G36*
X179197000Y-141783363D02*
G01*
X179202311Y-142160870D01*
X179223139Y-142429527D01*
X179266821Y-142607221D01*
X179340698Y-142711838D01*
X179452108Y-142761266D01*
X179603216Y-142773400D01*
X179773767Y-142760820D01*
X179896063Y-142711041D01*
X179978831Y-142606002D01*
X180030799Y-142427641D01*
X180060693Y-142157898D01*
X180076813Y-141793239D01*
X180099376Y-141033500D01*
X180467000Y-141033500D01*
X180467000Y-142734232D01*
X180625750Y-142774075D01*
X180752160Y-142845137D01*
X180784500Y-142971459D01*
X180775272Y-143061700D01*
X180726880Y-143108688D01*
X180608262Y-143126437D01*
X180435250Y-143129000D01*
X180086000Y-143129000D01*
X180083457Y-142922625D01*
X180080915Y-142716250D01*
X179989708Y-142884139D01*
X179864400Y-143024730D01*
X179697025Y-143122264D01*
X179547133Y-143171079D01*
X179450417Y-143180759D01*
X179340131Y-143153988D01*
X179292250Y-143138545D01*
X179118567Y-143069426D01*
X178992499Y-142978901D01*
X178906649Y-142847166D01*
X178853622Y-142654419D01*
X178826024Y-142380855D01*
X178816459Y-142006671D01*
X178816000Y-141863174D01*
X178816000Y-141033500D01*
X179197000Y-141033500D01*
X179197000Y-141783363D01*
G37*
G36*
X184023000Y-141795500D02*
G01*
X184025140Y-142124773D01*
X184033931Y-142351957D01*
X184052924Y-142501925D01*
X184085674Y-142599550D01*
X184135734Y-142669705D01*
X184150000Y-142684500D01*
X184339141Y-142794730D01*
X184551658Y-142787731D01*
X184730238Y-142690192D01*
X184793915Y-142630315D01*
X184837582Y-142556155D01*
X184866024Y-142443053D01*
X184884024Y-142266350D01*
X184896367Y-142001390D01*
X184902711Y-141801192D01*
X184925376Y-141033500D01*
X185293000Y-141033500D01*
X185293000Y-141886333D01*
X185293776Y-142229495D01*
X185298340Y-142466143D01*
X185310044Y-142616764D01*
X185332240Y-142701844D01*
X185368280Y-142741867D01*
X185421517Y-142757321D01*
X185435875Y-142759458D01*
X185554252Y-142820385D01*
X185598842Y-142954375D01*
X185604119Y-143053740D01*
X185570949Y-143105748D01*
X185470072Y-143125726D01*
X185272228Y-143128999D01*
X185265467Y-143129000D01*
X184912000Y-143129000D01*
X184907702Y-142922625D01*
X184901153Y-142790589D01*
X184880965Y-142773526D01*
X184835987Y-142855787D01*
X184733326Y-142978066D01*
X184574665Y-143087106D01*
X184560813Y-143093912D01*
X184400623Y-143163246D01*
X184288417Y-143180349D01*
X184159585Y-143151738D01*
X184118250Y-143138545D01*
X183944567Y-143069426D01*
X183818499Y-142978901D01*
X183732649Y-142847166D01*
X183679622Y-142654419D01*
X183652024Y-142380855D01*
X183642459Y-142006671D01*
X183642000Y-141863174D01*
X183642000Y-141033500D01*
X184023000Y-141033500D01*
X184023000Y-141795500D01*
G37*
G36*
X186958879Y-140414375D02*
G01*
X186964249Y-140574291D01*
X186968900Y-140830470D01*
X186972436Y-141152175D01*
X186974461Y-141508669D01*
X186974754Y-141648836D01*
X186978642Y-142059619D01*
X186990066Y-142357304D01*
X187010122Y-142555627D01*
X187039910Y-142668328D01*
X187058520Y-142696586D01*
X187179294Y-142748326D01*
X187391820Y-142771392D01*
X187487145Y-142771497D01*
X187685553Y-142770048D01*
X187788410Y-142788514D01*
X187827097Y-142842740D01*
X187833000Y-142946122D01*
X187807807Y-143086411D01*
X187723624Y-143129679D01*
X187721875Y-143129698D01*
X187583334Y-143138017D01*
X187399181Y-143157228D01*
X187388500Y-143158567D01*
X187164607Y-143159363D01*
X186955390Y-143123140D01*
X186826011Y-143068693D01*
X186727919Y-142982857D01*
X186657007Y-142849433D01*
X186609171Y-142652222D01*
X186580302Y-142375026D01*
X186566294Y-142001645D01*
X186563000Y-141575289D01*
X186563000Y-140525500D01*
X186245500Y-140525500D01*
X186057547Y-140521338D01*
X185963822Y-140495747D01*
X185931565Y-140429073D01*
X185928000Y-140335000D01*
X185928000Y-140144500D01*
X186944000Y-140144500D01*
X186958879Y-140414375D01*
G37*
G36*
X188849000Y-141783363D02*
G01*
X188854311Y-142160870D01*
X188875139Y-142429527D01*
X188918821Y-142607221D01*
X188992698Y-142711838D01*
X189104108Y-142761266D01*
X189255216Y-142773400D01*
X189425767Y-142760820D01*
X189548063Y-142711041D01*
X189630831Y-142606002D01*
X189682799Y-142427641D01*
X189712693Y-142157898D01*
X189728813Y-141793239D01*
X189751376Y-141033500D01*
X190119000Y-141033500D01*
X190119000Y-142734232D01*
X190277750Y-142774075D01*
X190404160Y-142845137D01*
X190436500Y-142971459D01*
X190427272Y-143061700D01*
X190378880Y-143108688D01*
X190260262Y-143126437D01*
X190087250Y-143129000D01*
X189887591Y-143125826D01*
X189783671Y-143104877D01*
X189744227Y-143049013D01*
X189738000Y-142941092D01*
X189738000Y-142745996D01*
X189563375Y-142935231D01*
X189337177Y-143108637D01*
X189094607Y-143165574D01*
X188944250Y-143139791D01*
X188770417Y-143069202D01*
X188644326Y-142978243D01*
X188558532Y-142846959D01*
X188505590Y-142655394D01*
X188478056Y-142383594D01*
X188468485Y-142011602D01*
X188468000Y-141863174D01*
X188468000Y-141033500D01*
X188849000Y-141033500D01*
X188849000Y-141783363D01*
G37*
G36*
X192325203Y-141000600D02*
G01*
X192495281Y-141016995D01*
X192561063Y-141041882D01*
X192578665Y-141127571D01*
X192564097Y-141232382D01*
X192535270Y-141312118D01*
X192478715Y-141355344D01*
X192363635Y-141370891D01*
X192159233Y-141367587D01*
X192100632Y-141365265D01*
X191755701Y-141375802D01*
X191507924Y-141437530D01*
X191366179Y-141547525D01*
X191338451Y-141616394D01*
X191346646Y-141677546D01*
X191409586Y-141732721D01*
X191546082Y-141790532D01*
X191774949Y-141859590D01*
X191999835Y-141919143D01*
X192307054Y-142040869D01*
X192518888Y-142215767D01*
X192626378Y-142429990D01*
X192620566Y-142669693D01*
X192569706Y-142799980D01*
X192425087Y-142969332D01*
X192264054Y-143061710D01*
X192043344Y-143113768D01*
X191749640Y-143149882D01*
X191436387Y-143166050D01*
X191157029Y-143158273D01*
X191083572Y-143150080D01*
X190940800Y-143116457D01*
X190890540Y-143048114D01*
X190893072Y-142950068D01*
X190906684Y-142868401D01*
X190941576Y-142818183D01*
X191023474Y-142791766D01*
X191178101Y-142781505D01*
X191431182Y-142779751D01*
X191466033Y-142779750D01*
X191753473Y-142774483D01*
X191942841Y-142755465D01*
X192062755Y-142717867D01*
X192131707Y-142667433D01*
X192203412Y-142547388D01*
X192161342Y-142438689D01*
X192001250Y-142337209D01*
X191718888Y-142238817D01*
X191679537Y-142227828D01*
X191443513Y-142158748D01*
X191243443Y-142092351D01*
X191124270Y-142043757D01*
X190981505Y-141903918D01*
X190920967Y-141706552D01*
X190939028Y-141487716D01*
X191032064Y-141283468D01*
X191196447Y-141129868D01*
X191217331Y-141118336D01*
X191357005Y-141074774D01*
X191572499Y-141039235D01*
X191828942Y-141013704D01*
X192091466Y-141000164D01*
X192325203Y-141000600D01*
G37*
G36*
X182020267Y-140998152D02*
G01*
X182157817Y-141114831D01*
X182267064Y-141259663D01*
X182417977Y-141108749D01*
X182563076Y-141002626D01*
X182714193Y-140993486D01*
X182740320Y-140999143D01*
X182860038Y-141037523D01*
X182946905Y-141098690D01*
X183006113Y-141201348D01*
X183042854Y-141364206D01*
X183062321Y-141605967D01*
X183069706Y-141945339D01*
X183070500Y-142188636D01*
X183070500Y-143129000D01*
X182626000Y-143129000D01*
X182626000Y-142238007D01*
X182624005Y-141876843D01*
X182616645Y-141623375D01*
X182601857Y-141458342D01*
X182577579Y-141362482D01*
X182541747Y-141316533D01*
X182526481Y-141308825D01*
X182401184Y-141309063D01*
X182325680Y-141425382D01*
X182299753Y-141658203D01*
X182301388Y-141745336D01*
X182302402Y-141977294D01*
X182292745Y-142274900D01*
X182274470Y-142577440D01*
X182272288Y-142605125D01*
X182249307Y-142861996D01*
X182225170Y-143017467D01*
X182190516Y-143096872D01*
X182135985Y-143125545D01*
X182078739Y-143129000D01*
X181927500Y-143129000D01*
X181927500Y-142238007D01*
X181925342Y-141874778D01*
X181917572Y-141619664D01*
X181902237Y-141453833D01*
X181877390Y-141358453D01*
X181841080Y-141314692D01*
X181831441Y-141310152D01*
X181706187Y-141315596D01*
X181640941Y-141351671D01*
X181600840Y-141410913D01*
X181573339Y-141523502D01*
X181556455Y-141708896D01*
X181548209Y-141986556D01*
X181546500Y-142279525D01*
X181546500Y-143129000D01*
X181165500Y-143129000D01*
X181165500Y-141033500D01*
X181356000Y-141033500D01*
X181507239Y-141061898D01*
X181546500Y-141128750D01*
X181565298Y-141178450D01*
X181634940Y-141134135D01*
X181673500Y-141097000D01*
X181849282Y-140985826D01*
X182020267Y-140998152D01*
G37*
D13*
%TO.C,D15*%
X257052336Y-107472524D02*
X256751121Y-106817337D01*
X257052336Y-107472524D02*
X256509107Y-107386485D01*
X257146197Y-106879911D02*
X257224414Y-106386067D01*
X256989762Y-107867599D02*
X257052336Y-107472524D01*
X256751121Y-106817337D02*
X257541272Y-106942485D01*
X257052336Y-107472524D02*
X257595565Y-107558563D01*
X257541272Y-106942485D02*
X257052336Y-107472524D01*
%TO.C,D4*%
X194298742Y-136493242D02*
X193952558Y-135860663D01*
X194298742Y-136493242D02*
X193750835Y-136445306D01*
X194749514Y-135930388D02*
X194298742Y-136493242D01*
X194351036Y-135895525D02*
X194394614Y-135397428D01*
X194263880Y-136891720D02*
X194298742Y-136493242D01*
X193952558Y-135860663D02*
X194749514Y-135930388D01*
X194298742Y-136493242D02*
X194846650Y-136541178D01*
%TO.C,D11*%
X235783306Y-120303283D02*
X236326535Y-120389322D01*
X235783306Y-120303283D02*
X235482091Y-119648096D01*
X235783306Y-120303283D02*
X235240077Y-120217244D01*
X235720732Y-120698358D02*
X235783306Y-120303283D01*
X236272242Y-119773244D02*
X235783306Y-120303283D01*
X235877167Y-119710670D02*
X235955384Y-119216826D01*
X235482091Y-119648096D02*
X236272242Y-119773244D01*
%TO.C,D13*%
X251201687Y-144412068D02*
X251279904Y-143918224D01*
X251107826Y-145004681D02*
X250564597Y-144918642D01*
X250806611Y-144349494D02*
X251596762Y-144474642D01*
X251596762Y-144474642D02*
X251107826Y-145004681D01*
X251045252Y-145399756D02*
X251107826Y-145004681D01*
X251107826Y-145004681D02*
X251651055Y-145090720D01*
X251107826Y-145004681D02*
X250806611Y-144349494D01*
%TO.C,D5*%
X195608517Y-116932963D02*
X196405473Y-117002688D01*
X196006995Y-116967825D02*
X196050573Y-116469728D01*
X195954701Y-117565542D02*
X195406794Y-117517606D01*
X195919839Y-117964020D02*
X195954701Y-117565542D01*
X196405473Y-117002688D02*
X195954701Y-117565542D01*
X195954701Y-117565542D02*
X195608517Y-116932963D01*
X195954701Y-117565542D02*
X196502609Y-117613478D01*
%TO.C,D1*%
X174620000Y-142139000D02*
X174620000Y-141639000D01*
X174620000Y-143139000D02*
X174620000Y-142739000D01*
X174220000Y-142139000D02*
X175020000Y-142139000D01*
X174620000Y-142739000D02*
X174220000Y-142139000D01*
X175020000Y-142139000D02*
X174620000Y-142739000D01*
X174620000Y-142739000D02*
X174070000Y-142739000D01*
X174620000Y-142739000D02*
X175170000Y-142739000D01*
%TO.C,D6*%
X197610660Y-98637843D02*
X198158568Y-98685779D01*
X197610660Y-98637843D02*
X197062753Y-98589907D01*
X197610660Y-98637843D02*
X197264476Y-98005264D01*
X198061432Y-98074989D02*
X197610660Y-98637843D01*
X197264476Y-98005264D02*
X198061432Y-98074989D01*
X197575798Y-99036321D02*
X197610660Y-98637843D01*
X197662954Y-98040126D02*
X197706532Y-97542029D01*
%TO.C,D16*%
X241159179Y-163070794D02*
X241221753Y-162675719D01*
X241221753Y-162675719D02*
X240678524Y-162589680D01*
X241221753Y-162675719D02*
X241764982Y-162761758D01*
X241315614Y-162083106D02*
X241393831Y-161589262D01*
X241221753Y-162675719D02*
X240920538Y-162020532D01*
X241710689Y-162145680D02*
X241221753Y-162675719D01*
X240920538Y-162020532D02*
X241710689Y-162145680D01*
%TO.C,D10*%
X232811051Y-139069362D02*
X233354280Y-139155401D01*
X232811051Y-139069362D02*
X232509836Y-138414175D01*
X233299987Y-138539323D02*
X232811051Y-139069362D01*
X232748477Y-139464437D02*
X232811051Y-139069362D01*
X232509836Y-138414175D02*
X233299987Y-138539323D01*
X232904912Y-138476749D02*
X232983129Y-137982905D01*
X232811051Y-139069362D02*
X232267822Y-138983323D01*
%TO.C,D9*%
X218750927Y-95762805D02*
X218427030Y-95118530D01*
X219221067Y-95216025D02*
X218750927Y-95762805D01*
X218750927Y-95762805D02*
X218205026Y-95695777D01*
X218702179Y-96159824D02*
X218750927Y-95762805D01*
X218427030Y-95118530D02*
X219221067Y-95216025D01*
X218750927Y-95762805D02*
X219296827Y-95829833D01*
X218824048Y-95167277D02*
X218884983Y-94671004D01*
%TO.C,D2*%
X174620000Y-123739000D02*
X174070000Y-123739000D01*
X174620000Y-124139000D02*
X174620000Y-123739000D01*
X174620000Y-123739000D02*
X174220000Y-123139000D01*
X175020000Y-123139000D02*
X174620000Y-123739000D01*
X174220000Y-123139000D02*
X175020000Y-123139000D01*
X174620000Y-123139000D02*
X174620000Y-122639000D01*
X174620000Y-123739000D02*
X175170000Y-123739000D01*
%TO.C,D8*%
X216905550Y-114074402D02*
X216435410Y-114621182D01*
X216435410Y-114621182D02*
X216981310Y-114688210D01*
X216435410Y-114621182D02*
X216111513Y-113976907D01*
X216386662Y-115018201D02*
X216435410Y-114621182D01*
X216435410Y-114621182D02*
X215889509Y-114554154D01*
X216111513Y-113976907D02*
X216905550Y-114074402D01*
X216508531Y-114025654D02*
X216569466Y-113529381D01*
%TO.C,D20*%
X155620000Y-118739000D02*
X155070000Y-118739000D01*
X155220000Y-118139000D02*
X156020000Y-118139000D01*
X155620000Y-118139000D02*
X155620000Y-117639000D01*
X155620000Y-119139000D02*
X155620000Y-118739000D01*
X155620000Y-118739000D02*
X155220000Y-118139000D01*
X156020000Y-118139000D02*
X155620000Y-118739000D01*
X155620000Y-118739000D02*
X156170000Y-118739000D01*
%TO.C,D19*%
X156020000Y-137139000D02*
X155620000Y-137739000D01*
X155620000Y-137739000D02*
X156170000Y-137739000D01*
X155220000Y-137139000D02*
X156020000Y-137139000D01*
X155620000Y-137139000D02*
X155620000Y-136639000D01*
X155620000Y-138139000D02*
X155620000Y-137739000D01*
X155620000Y-137739000D02*
X155220000Y-137139000D01*
X155620000Y-137739000D02*
X155070000Y-137739000D01*
%TO.C,D3*%
X174620000Y-104739000D02*
X175170000Y-104739000D01*
X174620000Y-104739000D02*
X174220000Y-104139000D01*
X174620000Y-105139000D02*
X174620000Y-104739000D01*
X175020000Y-104139000D02*
X174620000Y-104739000D01*
X174220000Y-104139000D02*
X175020000Y-104139000D01*
X174620000Y-104139000D02*
X174620000Y-103639000D01*
X174620000Y-104739000D02*
X174070000Y-104739000D01*
%TO.C,D7*%
X214071144Y-133876577D02*
X214119892Y-133479558D01*
X214119892Y-133479558D02*
X214665792Y-133546586D01*
X214193013Y-132884030D02*
X214253948Y-132387757D01*
X214590032Y-132932778D02*
X214119892Y-133479558D01*
X213795995Y-132835283D02*
X214590032Y-132932778D01*
X214119892Y-133479558D02*
X213795995Y-132835283D01*
X214119892Y-133479558D02*
X213573991Y-133412530D01*
%TO.C,D14*%
X253778866Y-125583416D02*
X254569017Y-125708564D01*
X254080081Y-126238603D02*
X253536852Y-126152564D01*
X254569017Y-125708564D02*
X254080081Y-126238603D01*
X254173942Y-125645990D02*
X254252159Y-125152146D01*
X254080081Y-126238603D02*
X253778866Y-125583416D01*
X254080081Y-126238603D02*
X254623310Y-126324642D01*
X254017507Y-126633678D02*
X254080081Y-126238603D01*
%TO.C,D17*%
X262623064Y-176359287D02*
X262183814Y-176028289D01*
X262623064Y-176359287D02*
X262664699Y-175639380D01*
X262664699Y-175639380D02*
X263303607Y-176120832D01*
X262623064Y-176359287D02*
X263062313Y-176690286D01*
X262984153Y-175880106D02*
X263285060Y-175480788D01*
X263303607Y-176120832D02*
X262623064Y-176359287D01*
X262382338Y-176678742D02*
X262623064Y-176359287D01*
D11*
%TO.C,MCU1*%
X272998211Y-121408628D02*
X272600868Y-123917356D01*
X270738817Y-151910712D02*
X275904283Y-119297243D01*
X275904283Y-119297243D02*
X258343184Y-116515838D01*
X272600868Y-123917356D02*
X275109596Y-124314699D01*
X258343184Y-116515838D02*
X253177718Y-149129307D01*
X253177718Y-149129307D02*
X270738817Y-151910712D01*
X272998211Y-121408628D02*
X275506940Y-121805971D01*
D13*
%TO.C,D18*%
X276654124Y-197912312D02*
X275941292Y-197803359D01*
X275941292Y-197803359D02*
X276173732Y-198301829D01*
X275578769Y-197972407D02*
X275941292Y-197803359D01*
X275941292Y-197803359D02*
X275708852Y-197304890D01*
X276485077Y-197549788D02*
X276938231Y-197338479D01*
X276316030Y-197187265D02*
X276654124Y-197912312D01*
X275941292Y-197803359D02*
X276316030Y-197187265D01*
%TO.C,D12*%
X238755561Y-101537204D02*
X238212332Y-101451165D01*
X238755561Y-101537204D02*
X239298790Y-101623243D01*
X238755561Y-101537204D02*
X238454346Y-100882017D01*
X239244497Y-101007165D02*
X238755561Y-101537204D01*
X238454346Y-100882017D02*
X239244497Y-101007165D01*
X238849422Y-100944591D02*
X238927639Y-100450747D01*
X238692987Y-101932279D02*
X238755561Y-101537204D01*
%TD*%
D14*
%TO.C,MCU1*%
X254630754Y-148073614D03*
X255028098Y-145564886D03*
X255425441Y-143056158D03*
X255822785Y-140547429D03*
X256220129Y-138038701D03*
X256617472Y-135529973D03*
X257014816Y-133021244D03*
X257412159Y-130512516D03*
X257809503Y-128003787D03*
X258206846Y-125495059D03*
X258604190Y-122986331D03*
X259001533Y-120477602D03*
X269683125Y-150457676D03*
X270080468Y-147948947D03*
X270477812Y-145440219D03*
X270875155Y-142931491D03*
X271272499Y-140422762D03*
X271669842Y-137914034D03*
X272067186Y-135405305D03*
X272464529Y-132896577D03*
X272861873Y-130387849D03*
X273259217Y-127879120D03*
X273656560Y-125370392D03*
D15*
X274053904Y-122861664D03*
%TD*%
%LPC*%
D16*
%TO.C,REF\u002A\u002A*%
X199669400Y-87884000D03*
%TD*%
%TO.C,REF\u002A\u002A*%
X231952800Y-148564600D03*
%TD*%
%TO.C,REF\u002A\u002A*%
X242722400Y-94234000D03*
%TD*%
%TO.C,REF\u002A\u002A*%
X155803600Y-107416600D03*
%TD*%
%TO.C,REF\u002A\u002A*%
X156616400Y-146710400D03*
%TD*%
%TO.C,REF\u002A\u002A*%
X196773800Y-126517400D03*
%TD*%
%TO.C,REF\u002A\u002A*%
X265226800Y-180543200D03*
%TD*%
%TO.C,REF\u002A\u002A*%
X247599200Y-159740600D03*
%TD*%
D17*
%TO.C,D15*%
X256511073Y-110889926D03*
D18*
X257365205Y-105497147D03*
D19*
X257703103Y-103363740D03*
D18*
X256848971Y-108756519D03*
%TD*%
D20*
%TO.C,D4*%
X194473054Y-134500853D03*
D21*
X193997184Y-139940076D03*
D19*
X194661310Y-132349072D03*
D20*
X194185440Y-137788295D03*
%TD*%
D22*
%TO.C,S9*%
X215192497Y-92414181D03*
X207629295Y-91485537D03*
X214241511Y-89738340D03*
X209199377Y-89119243D03*
D23*
X211101348Y-94470926D03*
D24*
X216143482Y-95090022D03*
X206059214Y-93851830D03*
%TD*%
D18*
%TO.C,D11*%
X236096175Y-118327906D03*
D17*
X235242043Y-123720685D03*
D19*
X236434073Y-116194499D03*
D18*
X235579941Y-121587278D03*
%TD*%
D17*
%TO.C,D13*%
X250566563Y-148422083D03*
D18*
X251420695Y-143029304D03*
D19*
X251758593Y-140895897D03*
D18*
X250904461Y-146288676D03*
%TD*%
D22*
%TO.C,S5*%
X184690571Y-113679019D03*
X192281574Y-114343146D03*
X186177114Y-111259372D03*
X191237783Y-111702124D03*
D23*
X188264697Y-116541417D03*
D24*
X183204028Y-116098666D03*
X193325366Y-116984168D03*
%TD*%
D22*
%TO.C,S14*%
X250640685Y-122767832D03*
X243114500Y-121575801D03*
X249783664Y-120060432D03*
X244766208Y-119265745D03*
D24*
X251497706Y-125475232D03*
D23*
X246480249Y-124680545D03*
D24*
X241462792Y-123885858D03*
%TD*%
D21*
%TO.C,D5*%
X195653143Y-121012376D03*
D20*
X196129013Y-115573153D03*
X195841399Y-118860595D03*
D19*
X196317269Y-113421372D03*
%TD*%
D25*
%TO.C,D1*%
X174620000Y-140739000D03*
D26*
X174620000Y-146199000D03*
D25*
X174620000Y-144039000D03*
D19*
X174620000Y-138579000D03*
%TD*%
D22*
%TO.C,S3*%
X170680000Y-101849000D03*
X163060000Y-101849000D03*
X169410000Y-99309000D03*
X164330000Y-99309000D03*
D23*
X166870000Y-104389000D03*
D24*
X171950000Y-104389000D03*
X161790000Y-104389000D03*
%TD*%
D22*
%TO.C,S19*%
X144060000Y-134849000D03*
X151680000Y-134849000D03*
X145330000Y-132309000D03*
X150410000Y-132309000D03*
D23*
X147870000Y-137389000D03*
D24*
X152950000Y-137389000D03*
X142790000Y-137389000D03*
%TD*%
D27*
%TO.C,REF\u002A\u002A*%
X263524177Y-154127119D03*
X270437995Y-155222161D03*
D28*
X261217217Y-151433063D03*
X260497619Y-155976430D03*
X261584076Y-156148507D03*
X262303674Y-151605141D03*
X265534829Y-156774245D03*
X266254428Y-152230879D03*
X269217493Y-152700182D03*
X268497894Y-157243549D03*
%TD*%
D22*
%TO.C,S8*%
X205313778Y-110343914D03*
X212876980Y-111272558D03*
X206883860Y-107977620D03*
X211925994Y-108596717D03*
D24*
X213827965Y-113948399D03*
D23*
X208785831Y-113329303D03*
D24*
X203743697Y-112710207D03*
%TD*%
D22*
%TO.C,S16*%
X237782357Y-159204948D03*
X230256172Y-158012917D03*
X236925336Y-156497548D03*
X231907880Y-155702861D03*
D23*
X233621921Y-161117661D03*
D24*
X228604464Y-160322974D03*
X238639378Y-161912348D03*
%TD*%
D20*
%TO.C,D6*%
X197784972Y-96645454D03*
D21*
X197309102Y-102084677D03*
D20*
X197497358Y-99932896D03*
D19*
X197973228Y-94493673D03*
%TD*%
D22*
%TO.C,S7*%
X202998260Y-129202291D03*
X210561462Y-130130935D03*
X209610476Y-127455094D03*
X204568342Y-126835997D03*
D23*
X206470313Y-132187680D03*
D24*
X201428179Y-131568584D03*
X211512447Y-132806776D03*
%TD*%
D22*
%TO.C,S15*%
X253612940Y-104001753D03*
X246086755Y-102809722D03*
X247738463Y-100499666D03*
X252755919Y-101294353D03*
D23*
X249452504Y-105914466D03*
D24*
X244435047Y-105119779D03*
X254469961Y-106709153D03*
%TD*%
D17*
%TO.C,D16*%
X240680490Y-166093121D03*
D18*
X241534622Y-160700342D03*
X241018388Y-163959714D03*
D19*
X241872520Y-158566935D03*
%TD*%
D22*
%TO.C,S17*%
X255130083Y-167094250D03*
X261215685Y-171680080D03*
X257672960Y-165830020D03*
X261730029Y-168887241D03*
D24*
X260701342Y-174472919D03*
D23*
X256644274Y-171415699D03*
D24*
X252587206Y-168358479D03*
%TD*%
D18*
%TO.C,D10*%
X233123920Y-137093985D03*
D17*
X232269788Y-142486764D03*
D18*
X232607686Y-140353357D03*
D19*
X233461818Y-134960578D03*
%TD*%
D29*
%TO.C,D9*%
X218329259Y-99197015D03*
D30*
X218994665Y-93777713D03*
X218592497Y-97053115D03*
D19*
X219257903Y-91633813D03*
%TD*%
D22*
%TO.C,S11*%
X232343910Y-116832512D03*
X224817725Y-115640481D03*
X226469433Y-113330425D03*
X231486889Y-114125112D03*
D24*
X223166017Y-117950538D03*
D23*
X228183474Y-118745225D03*
D24*
X233200931Y-119539912D03*
%TD*%
D22*
%TO.C,S18*%
X273675055Y-186105075D03*
X276895406Y-193011140D03*
X278660703Y-190786679D03*
X276513802Y-186182635D03*
D23*
X272983209Y-190631558D03*
D24*
X270836308Y-186027514D03*
X275130110Y-195235602D03*
%TD*%
D22*
%TO.C,S10*%
X221845470Y-134406559D03*
X229371655Y-135598590D03*
X228514634Y-132891190D03*
X223497178Y-132096503D03*
D24*
X220193762Y-136716616D03*
X230228676Y-138305990D03*
D23*
X225211219Y-137511303D03*
%TD*%
D25*
%TO.C,D2*%
X174620000Y-121739000D03*
D26*
X174620000Y-127199000D03*
D19*
X174620000Y-119579000D03*
D25*
X174620000Y-125039000D03*
%TD*%
D30*
%TO.C,D8*%
X216679148Y-112636090D03*
D29*
X216013742Y-118055392D03*
D30*
X216276980Y-115911492D03*
D19*
X216942386Y-110492190D03*
%TD*%
D25*
%TO.C,D20*%
X155620000Y-116739000D03*
D26*
X155620000Y-122199000D03*
D25*
X155620000Y-120039000D03*
D19*
X155620000Y-114579000D03*
%TD*%
D25*
%TO.C,D19*%
X155620000Y-135739000D03*
D26*
X155620000Y-141199000D03*
D25*
X155620000Y-139039000D03*
D19*
X155620000Y-133579000D03*
%TD*%
D26*
%TO.C,D3*%
X174620000Y-108199000D03*
D25*
X174620000Y-102739000D03*
X174620000Y-106039000D03*
D19*
X174620000Y-100579000D03*
%TD*%
D22*
%TO.C,S20*%
X144060000Y-115849000D03*
X151680000Y-115849000D03*
X145330000Y-113309000D03*
X150410000Y-113309000D03*
D24*
X152950000Y-118389000D03*
X142790000Y-118389000D03*
D23*
X147870000Y-118389000D03*
%TD*%
D30*
%TO.C,D7*%
X214363630Y-131494466D03*
D29*
X213698224Y-136913768D03*
D30*
X213961462Y-134769868D03*
D19*
X214626868Y-129350566D03*
%TD*%
D17*
%TO.C,D14*%
X253538818Y-129656005D03*
D18*
X254392950Y-124263226D03*
X253876716Y-127522598D03*
D19*
X254730848Y-122129819D03*
%TD*%
D31*
%TO.C,D17*%
X263826694Y-174762016D03*
D32*
X260540784Y-179122566D03*
D31*
X261840704Y-177397514D03*
D19*
X265126614Y-173036964D03*
%TD*%
D33*
%TO.C,MCU1*%
X254630754Y-148073614D03*
X255028098Y-145564886D03*
X255425441Y-143056158D03*
X255822785Y-140547429D03*
X256220129Y-138038701D03*
X256617472Y-135529973D03*
X257014816Y-133021244D03*
X257412159Y-130512516D03*
X257809503Y-128003787D03*
X258206846Y-125495059D03*
X258604190Y-122986331D03*
X259001533Y-120477602D03*
X269683125Y-150457676D03*
X270080468Y-147948947D03*
X270477812Y-145440219D03*
X270875155Y-142931491D03*
X271272499Y-140422762D03*
X271669842Y-137914034D03*
X272067186Y-135405305D03*
X272464529Y-132896577D03*
X272861873Y-130387849D03*
X273259217Y-127879120D03*
X273656560Y-125370392D03*
D34*
X274053904Y-122861664D03*
%TD*%
D22*
%TO.C,S6*%
X193937533Y-95415447D03*
X186346530Y-94751320D03*
X187833073Y-92331673D03*
X192893742Y-92774425D03*
D24*
X194981325Y-98056469D03*
D23*
X189920656Y-97613718D03*
D24*
X184859987Y-97170967D03*
%TD*%
D22*
%TO.C,S2*%
X163060000Y-120849000D03*
X170680000Y-120849000D03*
X164330000Y-118309000D03*
X169410000Y-118309000D03*
D23*
X166870000Y-123389000D03*
D24*
X161790000Y-123389000D03*
X171950000Y-123389000D03*
%TD*%
D22*
%TO.C,S12*%
X227789979Y-96874402D03*
X235316164Y-98066433D03*
X234459143Y-95359033D03*
X229441687Y-94564346D03*
D23*
X231155728Y-99979146D03*
D24*
X236173185Y-100773833D03*
X226138271Y-99184459D03*
%TD*%
D35*
%TO.C,D18*%
X272805467Y-199265619D03*
D36*
X277753908Y-196958123D03*
X274763092Y-198352763D03*
D19*
X279711533Y-196045267D03*
%TD*%
D22*
%TO.C,S4*%
X183034612Y-132606719D03*
X190625615Y-133270846D03*
X189581824Y-130629824D03*
X184521155Y-130187072D03*
D23*
X186608738Y-135469117D03*
D24*
X181548069Y-135026366D03*
X191669407Y-135911868D03*
%TD*%
D17*
%TO.C,D12*%
X238214298Y-104954606D03*
D18*
X239068430Y-99561827D03*
X238552196Y-102821199D03*
D19*
X239406328Y-97428420D03*
%TD*%
D22*
%TO.C,S1*%
X170680000Y-139849000D03*
X163060000Y-139849000D03*
X169410000Y-137309000D03*
X164330000Y-137309000D03*
D24*
X171950000Y-142389000D03*
X161790000Y-142389000D03*
D23*
X166870000Y-142389000D03*
%TD*%
D22*
%TO.C,S13*%
X240142245Y-140341879D03*
X247668430Y-141533910D03*
X241793953Y-138031823D03*
X246811409Y-138826510D03*
D23*
X243507994Y-143446623D03*
D24*
X238490537Y-142651936D03*
X248525451Y-144241310D03*
%TD*%
M02*
