%TF.GenerationSoftware,KiCad,Pcbnew,(6.0.7)*%
%TF.CreationDate,2022-08-30T19:44:11+01:00*%
%TF.ProjectId,cumulus,63756d75-6c75-4732-9e6b-696361645f70,v1.0.0*%
%TF.SameCoordinates,Original*%
%TF.FileFunction,Profile,NP*%
%FSLAX46Y46*%
G04 Gerber Fmt 4.6, Leading zero omitted, Abs format (unit mm)*
G04 Created by KiCad (PCBNEW (6.0.7)) date 2022-08-30 19:44:11*
%MOMM*%
%LPD*%
G01*
G04 APERTURE LIST*
%TA.AperFunction,Profile*%
%ADD10C,0.150000*%
%TD*%
G04 APERTURE END LIST*
D10*
X225602807Y-84531199D02*
G75*
G03*
X226949000Y-85902800I1682393J304799D01*
G01*
X246049819Y-90703399D02*
G75*
G03*
X247345200Y-92176600I1551481J58099D01*
G01*
X201163224Y-144885557D02*
X209804000Y-145923000D01*
X210364459Y-146550041D02*
G75*
G03*
X209804000Y-145923000I-642837J-10584D01*
G01*
X179868284Y-83433578D02*
G75*
G03*
X177701578Y-85251715I-174284J-1992422D01*
G01*
X264299319Y-96875738D02*
G75*
G03*
X262636754Y-94587483I-1975419J312838D01*
G01*
X199137956Y-83181940D02*
X199321142Y-81690013D01*
X136620000Y-105139000D02*
X151620000Y-105139000D01*
X201163231Y-144885498D02*
G75*
G03*
X198927097Y-146696338I-243731J-1985102D01*
G01*
X153620000Y-103139000D02*
X153620000Y-93139000D01*
X153620000Y-153639000D02*
X153620000Y-152639000D01*
X201549973Y-79948660D02*
X223882261Y-82690720D01*
X246049343Y-90703389D02*
G75*
G03*
X244339979Y-88652163I-2026502J49091D01*
G01*
X261444313Y-114901038D02*
G75*
G03*
X263106841Y-117189287I1975387J-312862D01*
G01*
X196978557Y-84930550D02*
G75*
G03*
X199137956Y-83181940I174343J1992350D01*
G01*
X265729096Y-206427209D02*
G75*
G03*
X268386938Y-207394591I1812604J845209D01*
G01*
X247345200Y-92176600D02*
X262636754Y-94587483D01*
X268386938Y-207394592D02*
X287248600Y-198450200D01*
X180120000Y-150384655D02*
X180120000Y-153639000D01*
X287248606Y-198450210D02*
G75*
G03*
X288290000Y-194894200I-1562606J2388110D01*
G01*
X175353846Y-91139045D02*
G75*
G03*
X177346235Y-89313311I-46J2000045D01*
G01*
X153620000Y-153639000D02*
G75*
G03*
X155620000Y-155639000I2000000J0D01*
G01*
X182294311Y-148392266D02*
X196661115Y-149649198D01*
X134620000Y-148639000D02*
G75*
G03*
X136620000Y-150639000I2000000J0D01*
G01*
X225602799Y-84531200D02*
G75*
G03*
X223882262Y-82690720I-1959785J-107622D01*
G01*
X198927096Y-146696338D02*
X198827816Y-147831120D01*
X240530764Y-175864111D02*
G75*
G03*
X239640011Y-175485995I-1203664J-1597289D01*
G01*
X261444333Y-114901041D02*
X264299262Y-96875729D01*
X271526000Y-158470600D02*
X277362375Y-121472072D01*
X219928475Y-150089762D02*
X212026968Y-148838286D01*
X155620000Y-91139000D02*
G75*
G03*
X153620000Y-93139000I0J-2000000D01*
G01*
X155620000Y-155639000D02*
X178120000Y-155639000D01*
X218775167Y-170156399D02*
G75*
G03*
X220437670Y-172444644I1975333J-312901D01*
G01*
X182294307Y-148392310D02*
G75*
G03*
X180120000Y-150384655I-174307J-1992390D01*
G01*
X271526000Y-158470600D02*
G75*
G03*
X271633496Y-159785846I3783313J-352803D01*
G01*
X196661113Y-149649218D02*
G75*
G03*
X198827815Y-147831120I174287J1992418D01*
G01*
X257618323Y-189033625D02*
X265729086Y-206427213D01*
X271633496Y-159785846D02*
X288290000Y-194894200D01*
X201549963Y-79948739D02*
G75*
G03*
X199321142Y-81690013I-243763J-1985061D01*
G01*
X210364420Y-146550034D02*
G75*
G03*
X212026968Y-148838286I1975380J-312866D01*
G01*
X220437670Y-172444643D02*
X239640011Y-175485995D01*
X257618334Y-189033620D02*
G75*
G03*
X257009337Y-188281590I-1812634J-845280D01*
G01*
X240530772Y-175864101D02*
X257009337Y-188281591D01*
X153620000Y-152639000D02*
G75*
G03*
X151620000Y-150639000I-2000000J0D01*
G01*
X136620000Y-105139000D02*
G75*
G03*
X134620000Y-107139000I0J-2000000D01*
G01*
X226949000Y-85902800D02*
X244339979Y-88652164D01*
X178120000Y-155639000D02*
G75*
G03*
X180120000Y-153639000I0J2000000D01*
G01*
X134620000Y-148639000D02*
X134620000Y-107139000D01*
X277362373Y-121472072D02*
G75*
G03*
X275699867Y-119183826I-1975373J312872D01*
G01*
X221590934Y-152378000D02*
G75*
G03*
X219928475Y-150089762I-1975334J312900D01*
G01*
X218775162Y-170156398D02*
X221590983Y-152378008D01*
X155620000Y-91139000D02*
X175353846Y-91139000D01*
X179868279Y-83433636D02*
X196978553Y-84930591D01*
X275699867Y-119183826D02*
X263106841Y-117189287D01*
X151620000Y-105139000D02*
G75*
G03*
X153620000Y-103139000I0J2000000D01*
G01*
X177346235Y-89313311D02*
X177701579Y-85251714D01*
X136620000Y-150639000D02*
X151620000Y-150639000D01*
M02*
