M48
; DRILL file {KiCad (6.0.7)} date Tue Aug 30 19:45:45 2022
; FORMAT={-:-/ absolute / inch / decimal}
; #@! TF.CreationDate,2022-08-30T19:45:45+01:00
; #@! TF.GenerationSoftware,Kicad,Pcbnew,(6.0.7)
; #@! TF.FileFunction,Plated,1,2,PTH
FMAT,2
INCH
; #@! TA.AperFunction,Plated,PTH,ViaDrill
T1C0.0157
; #@! TA.AperFunction,Plated,PTH,ComponentDrill
T2C0.0354
; #@! TA.AperFunction,Plated,PTH,ComponentDrill
T3C0.0390
; #@! TA.AperFunction,Plated,PTH,ComponentDrill
T4C0.0430
; #@! TA.AperFunction,Plated,PTH,ComponentDrill
T5C0.0590
%
G90
G05
T1
X5.68Y-5.78
X6.43Y-5.965
X7.21Y-5.74
X8.04Y-5.61
X8.765Y-5.755
X9.445Y-6.045
X9.515Y-5.955
X10.055Y-5.9
X10.055Y-6.075
X10.255Y-5.865
T3
X6.1268Y-4.511
X6.1268Y-4.811
X6.1268Y-5.259
X6.1268Y-5.559
X6.8748Y-3.9598
X6.8748Y-4.2598
X6.8748Y-4.7078
X6.8748Y-5.0078
X6.8748Y-5.4559
X6.8748Y-5.7559
X7.6377Y-5.5095
X7.6638Y-5.2106
X7.7029Y-4.7643
X7.729Y-4.4654
X7.7681Y-4.0191
X7.7942Y-3.7202
X8.4133Y-5.3903
X8.4499Y-5.0925
X8.5045Y-4.6479
X8.541Y-4.3501
X8.5956Y-3.9054
X8.6322Y-3.6076
X9.1445Y-5.6097
X9.1914Y-5.3134
X9.2615Y-4.8709
X9.3084Y-4.5746
X9.3785Y-4.1321
X9.4254Y-3.8358
X9.4756Y-6.5391
X9.5225Y-6.2428
X9.8648Y-5.8434
X9.9118Y-5.5471
X9.9818Y-5.1046
X10.0288Y-4.8083
X10.0989Y-4.3657
X10.1458Y-4.0694
X10.2575Y-7.0521
X10.4381Y-6.8125
X10.7404Y-7.8451
X11.0123Y-7.7183
T4
X10.0248Y-5.8297
X10.0405Y-5.7309
X10.0561Y-5.6321
X10.0718Y-5.5334
X10.0874Y-5.4346
X10.1031Y-5.3358
X10.1187Y-5.2371
X10.1343Y-5.1383
X10.15Y-5.0395
X10.1656Y-4.9408
X10.1813Y-4.842
X10.1969Y-4.7432
X10.6174Y-5.9235
X10.6331Y-5.8248
X10.6487Y-5.726
X10.6644Y-5.6272
X10.68Y-5.5285
X10.6957Y-5.4297
X10.7113Y-5.3309
X10.7269Y-5.2321
X10.7426Y-5.1334
X10.7582Y-5.0346
X10.7739Y-4.9358
X10.7895Y-4.8371
T5
X5.6717Y-4.561
X5.6717Y-5.309
X5.7217Y-4.461
X5.7217Y-5.209
X5.9217Y-4.461
X5.9217Y-5.209
X5.9717Y-4.561
X5.9717Y-5.309
X6.4197Y-4.0098
X6.4197Y-4.7578
X6.4197Y-5.5059
X6.4697Y-3.9098
X6.4697Y-4.6578
X6.4697Y-5.4059
X6.6697Y-3.9098
X6.6697Y-4.6578
X6.6697Y-5.4059
X6.7197Y-4.0098
X6.7197Y-4.7578
X6.7197Y-5.5059
X7.2061Y-5.2207
X7.2646Y-5.1255
X7.2713Y-4.4756
X7.3298Y-4.3803
X7.3365Y-3.7304
X7.395Y-3.6351
X7.4639Y-5.1429
X7.5049Y-5.2469
X7.529Y-4.3977
X7.5701Y-4.5017
X7.5942Y-3.6525
X7.6353Y-3.7565
X7.9921Y-5.0867
X8.0539Y-4.9935
X8.0832Y-4.3442
X8.145Y-4.2511
X8.1744Y-3.6018
X8.2362Y-3.5086
X8.2524Y-5.0179
X8.2898Y-5.1233
X8.3435Y-4.2755
X8.381Y-4.3808
X8.4347Y-3.533
X8.4721Y-3.6384
X8.7341Y-5.2916
X8.7991Y-5.2006
X8.8511Y-4.5528
X8.9161Y-4.4618
X8.9681Y-3.814
X8.9966Y-5.2319
X9.0304Y-5.3385
X9.0331Y-3.723
X9.0652Y-6.221
X9.1137Y-4.4931
X9.1302Y-6.13
X9.1474Y-4.5997
X9.2307Y-3.7543
X9.2644Y-3.8609
X9.3278Y-6.1613
X9.3615Y-6.2679
X9.4544Y-5.5253
X9.5194Y-5.4343
X9.5714Y-4.7864
X9.6365Y-4.6955
X9.6885Y-4.0476
X9.717Y-5.4656
X9.7507Y-5.5722
X9.7535Y-3.9567
X9.834Y-4.7268
X9.8677Y-4.8334
X9.951Y-3.988
X9.9848Y-4.0946
X10.0445Y-6.5785
X10.1446Y-6.5287
X10.2841Y-6.7591
X10.3043Y-6.6491
X10.7746Y-7.327
X10.8864Y-7.33
X10.9014Y-7.5989
X10.9709Y-7.5113
T2
G00X10.2675Y-6.1427
M15
G01X10.2441Y-6.139
M16
G05
G00X10.2958Y-5.9638
M15
G01X10.2725Y-5.9601
M16
G05
G00X10.3103Y-6.1494
M15
G01X10.2869Y-6.1457
M16
G05
G00X10.3386Y-5.9706
M15
G01X10.3153Y-5.9669
M16
G05
G00X10.4658Y-6.1741
M15
G01X10.4425Y-6.1704
M16
G05
G00X10.4941Y-5.9952
M15
G01X10.4708Y-5.9915
M16
G05
G00X10.5824Y-6.1925
M15
G01X10.5591Y-6.1888
M16
G05
G00X10.6108Y-6.0137
M15
G01X10.5874Y-6.01
M16
G05
T0
M30
