%TF.GenerationSoftware,KiCad,Pcbnew,(6.0.7)*%
%TF.CreationDate,2022-08-30T19:44:11+01:00*%
%TF.ProjectId,cumulus,63756d75-6c75-4732-9e6b-696361645f70,v1.0.0*%
%TF.SameCoordinates,Original*%
%TF.FileFunction,Soldermask,Bot*%
%TF.FilePolarity,Negative*%
%FSLAX46Y46*%
G04 Gerber Fmt 4.6, Leading zero omitted, Abs format (unit mm)*
G04 Created by KiCad (PCBNEW (6.0.7)) date 2022-08-30 19:44:11*
%MOMM*%
%LPD*%
G01*
G04 APERTURE LIST*
G04 Aperture macros list*
%AMRoundRect*
0 Rectangle with rounded corners*
0 $1 Rounding radius*
0 $2 $3 $4 $5 $6 $7 $8 $9 X,Y pos of 4 corners*
0 Add a 4 corners polygon primitive as box body*
4,1,4,$2,$3,$4,$5,$6,$7,$8,$9,$2,$3,0*
0 Add four circle primitives for the rounded corners*
1,1,$1+$1,$2,$3*
1,1,$1+$1,$4,$5*
1,1,$1+$1,$6,$7*
1,1,$1+$1,$8,$9*
0 Add four rect primitives between the rounded corners*
20,1,$1+$1,$2,$3,$4,$5,0*
20,1,$1+$1,$4,$5,$6,$7,0*
20,1,$1+$1,$6,$7,$8,$9,0*
20,1,$1+$1,$8,$9,$2,$3,0*%
%AMHorizOval*
0 Thick line with rounded ends*
0 $1 width*
0 $2 $3 position (X,Y) of the first rounded end (center of the circle)*
0 $4 $5 position (X,Y) of the second rounded end (center of the circle)*
0 Add line between two ends*
20,1,$1,$2,$3,$4,$5,0*
0 Add two circle primitives to create the rounded ends*
1,1,$1,$2,$3*
1,1,$1,$4,$5*%
G04 Aperture macros list end*
%ADD10C,2.300000*%
%ADD11RoundRect,0.050000X0.522217X-0.538320X0.663009X0.350599X-0.522217X0.538320X-0.663009X-0.350599X0*%
%ADD12RoundRect,0.050000X0.738985X-1.017125X1.017125X0.738985X-0.738985X1.017125X-1.017125X-0.738985X0*%
%ADD13C,2.005000*%
%ADD14RoundRect,0.050000X0.808136X-0.963099X0.963099X0.808136X-0.808136X0.963099X-0.963099X-0.808136X0*%
%ADD15RoundRect,0.050000X0.558497X-0.500581X0.636937X0.395994X-0.558497X0.500581X-0.636937X-0.395994X0*%
%ADD16C,2.386000*%
%ADD17C,4.087800*%
%ADD18C,1.801800*%
%ADD19RoundRect,0.050000X0.889000X-0.889000X0.889000X0.889000X-0.889000X0.889000X-0.889000X-0.889000X0*%
%ADD20RoundRect,0.050000X0.600000X-0.450000X0.600000X0.450000X-0.600000X0.450000X-0.600000X-0.450000X0*%
%ADD21C,1.600000*%
%ADD22HorizOval,1.700000X-0.296307X0.046930X0.296307X-0.046930X0*%
%ADD23RoundRect,0.050000X0.774032X-0.990715X0.990715X0.774032X-0.774032X0.990715X-0.990715X-0.774032X0*%
%ADD24RoundRect,0.050000X0.540686X-0.519767X0.650369X0.373524X-0.540686X0.519767X-0.650369X-0.373524X0*%
%ADD25RoundRect,0.050000X0.208365X-0.720475X0.749998X-0.001703X-0.208365X0.720475X-0.749998X0.001703X0*%
%ADD26RoundRect,0.050000X0.174973X-1.245001X1.245001X0.174973X-0.174973X1.245001X-1.245001X-0.174973X0*%
%ADD27C,1.852600*%
%ADD28RoundRect,0.050000X-0.728428X1.002595X-1.002595X-0.728428X0.728428X-1.002595X1.002595X0.728428X0*%
%ADD29RoundRect,0.050000X-0.154268X-0.733963X0.661409X-0.353606X0.154268X0.733963X-0.661409X0.353606X0*%
%ADD30RoundRect,0.050000X-0.430000X-1.181415X1.181415X-0.430000X0.430000X1.181415X-1.181415X0.430000X0*%
G04 APERTURE END LIST*
D10*
%TO.C,REF\u002A\u002A*%
X199669400Y-87884000D03*
%TD*%
%TO.C,REF\u002A\u002A*%
X231952800Y-148564600D03*
%TD*%
%TO.C,REF\u002A\u002A*%
X242722400Y-94234000D03*
%TD*%
%TO.C,REF\u002A\u002A*%
X155803600Y-107416600D03*
%TD*%
%TO.C,REF\u002A\u002A*%
X156616400Y-146710400D03*
%TD*%
%TO.C,REF\u002A\u002A*%
X196773800Y-126517400D03*
%TD*%
%TO.C,REF\u002A\u002A*%
X265226800Y-180543200D03*
%TD*%
%TO.C,REF\u002A\u002A*%
X247599200Y-159740600D03*
%TD*%
D11*
%TO.C,D15*%
X257365205Y-105497147D03*
D12*
X256511073Y-110889926D03*
D13*
X257703103Y-103363740D03*
D11*
X256848971Y-108756519D03*
%TD*%
D14*
%TO.C,D4*%
X193997184Y-139940076D03*
D15*
X194473054Y-134500853D03*
D13*
X194661310Y-132349072D03*
D15*
X194185440Y-137788295D03*
%TD*%
D16*
%TO.C,S9*%
X215192497Y-92414181D03*
X207629295Y-91485537D03*
X214241511Y-89738340D03*
X209199377Y-89119243D03*
D17*
X211101348Y-94470926D03*
D18*
X216143482Y-95090022D03*
X206059214Y-93851830D03*
%TD*%
D11*
%TO.C,D11*%
X236096175Y-118327906D03*
D12*
X235242043Y-123720685D03*
D13*
X236434073Y-116194499D03*
D11*
X235579941Y-121587278D03*
%TD*%
%TO.C,D13*%
X251420695Y-143029304D03*
D12*
X250566563Y-148422083D03*
D13*
X251758593Y-140895897D03*
D11*
X250904461Y-146288676D03*
%TD*%
D16*
%TO.C,S5*%
X184690571Y-113679019D03*
X192281574Y-114343146D03*
X186177114Y-111259372D03*
X191237783Y-111702124D03*
D17*
X188264697Y-116541417D03*
D18*
X183204028Y-116098666D03*
X193325366Y-116984168D03*
%TD*%
D16*
%TO.C,S14*%
X250640685Y-122767832D03*
X243114500Y-121575801D03*
X249783664Y-120060432D03*
X244766208Y-119265745D03*
D18*
X251497706Y-125475232D03*
D17*
X246480249Y-124680545D03*
D18*
X241462792Y-123885858D03*
%TD*%
D14*
%TO.C,D5*%
X195653143Y-121012376D03*
D15*
X196129013Y-115573153D03*
X195841399Y-118860595D03*
D13*
X196317269Y-113421372D03*
%TD*%
D19*
%TO.C,D1*%
X174620000Y-146199000D03*
D20*
X174620000Y-140739000D03*
X174620000Y-144039000D03*
D13*
X174620000Y-138579000D03*
%TD*%
D16*
%TO.C,S3*%
X170680000Y-101849000D03*
X163060000Y-101849000D03*
X169410000Y-99309000D03*
X164330000Y-99309000D03*
D17*
X166870000Y-104389000D03*
D18*
X171950000Y-104389000D03*
X161790000Y-104389000D03*
%TD*%
D16*
%TO.C,S19*%
X144060000Y-134849000D03*
X151680000Y-134849000D03*
X145330000Y-132309000D03*
X150410000Y-132309000D03*
D17*
X147870000Y-137389000D03*
D18*
X152950000Y-137389000D03*
X142790000Y-137389000D03*
%TD*%
D21*
%TO.C,REF\u002A\u002A*%
X263524177Y-154127119D03*
X270437995Y-155222161D03*
D22*
X261217217Y-151433063D03*
X260497619Y-155976430D03*
X261584076Y-156148507D03*
X262303674Y-151605141D03*
X265534829Y-156774245D03*
X266254428Y-152230879D03*
X269217493Y-152700182D03*
X268497894Y-157243549D03*
%TD*%
D16*
%TO.C,S8*%
X205313778Y-110343914D03*
X212876980Y-111272558D03*
X206883860Y-107977620D03*
X211925994Y-108596717D03*
D18*
X213827965Y-113948399D03*
D17*
X208785831Y-113329303D03*
D18*
X203743697Y-112710207D03*
%TD*%
D16*
%TO.C,S16*%
X237782357Y-159204948D03*
X230256172Y-158012917D03*
X236925336Y-156497548D03*
X231907880Y-155702861D03*
D17*
X233621921Y-161117661D03*
D18*
X228604464Y-160322974D03*
X238639378Y-161912348D03*
%TD*%
D15*
%TO.C,D6*%
X197784972Y-96645454D03*
D14*
X197309102Y-102084677D03*
D13*
X197973228Y-94493673D03*
D15*
X197497358Y-99932896D03*
%TD*%
D16*
%TO.C,S7*%
X202998260Y-129202291D03*
X210561462Y-130130935D03*
X209610476Y-127455094D03*
X204568342Y-126835997D03*
D17*
X206470313Y-132187680D03*
D18*
X201428179Y-131568584D03*
X211512447Y-132806776D03*
%TD*%
D16*
%TO.C,S15*%
X253612940Y-104001753D03*
X246086755Y-102809722D03*
X247738463Y-100499666D03*
X252755919Y-101294353D03*
D17*
X249452504Y-105914466D03*
D18*
X244435047Y-105119779D03*
X254469961Y-106709153D03*
%TD*%
D12*
%TO.C,D16*%
X240680490Y-166093121D03*
D11*
X241534622Y-160700342D03*
D13*
X241872520Y-158566935D03*
D11*
X241018388Y-163959714D03*
%TD*%
D16*
%TO.C,S17*%
X255130083Y-167094250D03*
X261215685Y-171680080D03*
X257672960Y-165830020D03*
X261730029Y-168887241D03*
D18*
X260701342Y-174472919D03*
D17*
X256644274Y-171415699D03*
D18*
X252587206Y-168358479D03*
%TD*%
D12*
%TO.C,D10*%
X232269788Y-142486764D03*
D11*
X233123920Y-137093985D03*
X232607686Y-140353357D03*
D13*
X233461818Y-134960578D03*
%TD*%
D23*
%TO.C,D9*%
X218329259Y-99197015D03*
D24*
X218994665Y-93777713D03*
X218592497Y-97053115D03*
D13*
X219257903Y-91633813D03*
%TD*%
D16*
%TO.C,S11*%
X232343910Y-116832512D03*
X224817725Y-115640481D03*
X226469433Y-113330425D03*
X231486889Y-114125112D03*
D18*
X223166017Y-117950538D03*
D17*
X228183474Y-118745225D03*
D18*
X233200931Y-119539912D03*
%TD*%
D16*
%TO.C,S18*%
X273675055Y-186105075D03*
X276895406Y-193011140D03*
X278660703Y-190786679D03*
X276513802Y-186182635D03*
D17*
X272983209Y-190631558D03*
D18*
X270836308Y-186027514D03*
X275130110Y-195235602D03*
%TD*%
D16*
%TO.C,S10*%
X221845470Y-134406559D03*
X229371655Y-135598590D03*
X228514634Y-132891190D03*
X223497178Y-132096503D03*
D18*
X220193762Y-136716616D03*
X230228676Y-138305990D03*
D17*
X225211219Y-137511303D03*
%TD*%
D20*
%TO.C,D2*%
X174620000Y-121739000D03*
D19*
X174620000Y-127199000D03*
D13*
X174620000Y-119579000D03*
D20*
X174620000Y-125039000D03*
%TD*%
D23*
%TO.C,D8*%
X216013742Y-118055392D03*
D24*
X216679148Y-112636090D03*
X216276980Y-115911492D03*
D13*
X216942386Y-110492190D03*
%TD*%
D20*
%TO.C,D20*%
X155620000Y-116739000D03*
D19*
X155620000Y-122199000D03*
D20*
X155620000Y-120039000D03*
D13*
X155620000Y-114579000D03*
%TD*%
D20*
%TO.C,D19*%
X155620000Y-135739000D03*
D19*
X155620000Y-141199000D03*
D20*
X155620000Y-139039000D03*
D13*
X155620000Y-133579000D03*
%TD*%
D19*
%TO.C,D3*%
X174620000Y-108199000D03*
D20*
X174620000Y-102739000D03*
X174620000Y-106039000D03*
D13*
X174620000Y-100579000D03*
%TD*%
D16*
%TO.C,S20*%
X144060000Y-115849000D03*
X151680000Y-115849000D03*
X145330000Y-113309000D03*
X150410000Y-113309000D03*
D18*
X152950000Y-118389000D03*
X142790000Y-118389000D03*
D17*
X147870000Y-118389000D03*
%TD*%
D24*
%TO.C,D7*%
X214363630Y-131494466D03*
D23*
X213698224Y-136913768D03*
D24*
X213961462Y-134769868D03*
D13*
X214626868Y-129350566D03*
%TD*%
D12*
%TO.C,D14*%
X253538818Y-129656005D03*
D11*
X254392950Y-124263226D03*
X253876716Y-127522598D03*
D13*
X254730848Y-122129819D03*
%TD*%
D25*
%TO.C,D17*%
X263826694Y-174762016D03*
D26*
X260540784Y-179122566D03*
D25*
X261840704Y-177397514D03*
D13*
X265126614Y-173036964D03*
%TD*%
D27*
%TO.C,MCU1*%
X254630754Y-148073614D03*
X255028098Y-145564886D03*
X255425441Y-143056158D03*
X255822785Y-140547429D03*
X256220129Y-138038701D03*
X256617472Y-135529973D03*
X257014816Y-133021244D03*
X257412159Y-130512516D03*
X257809503Y-128003787D03*
X258206846Y-125495059D03*
X258604190Y-122986331D03*
X259001533Y-120477602D03*
X269683125Y-150457676D03*
X270080468Y-147948947D03*
X270477812Y-145440219D03*
X270875155Y-142931491D03*
X271272499Y-140422762D03*
X271669842Y-137914034D03*
X272067186Y-135405305D03*
X272464529Y-132896577D03*
X272861873Y-130387849D03*
X273259217Y-127879120D03*
X273656560Y-125370392D03*
D28*
X274053904Y-122861664D03*
%TD*%
D16*
%TO.C,S6*%
X193937533Y-95415447D03*
X186346530Y-94751320D03*
X187833073Y-92331673D03*
X192893742Y-92774425D03*
D18*
X194981325Y-98056469D03*
D17*
X189920656Y-97613718D03*
D18*
X184859987Y-97170967D03*
%TD*%
D16*
%TO.C,S2*%
X163060000Y-120849000D03*
X170680000Y-120849000D03*
X164330000Y-118309000D03*
X169410000Y-118309000D03*
D17*
X166870000Y-123389000D03*
D18*
X161790000Y-123389000D03*
X171950000Y-123389000D03*
%TD*%
D16*
%TO.C,S12*%
X227789979Y-96874402D03*
X235316164Y-98066433D03*
X234459143Y-95359033D03*
X229441687Y-94564346D03*
D17*
X231155728Y-99979146D03*
D18*
X236173185Y-100773833D03*
X226138271Y-99184459D03*
%TD*%
D29*
%TO.C,D18*%
X277753908Y-196958123D03*
D30*
X272805467Y-199265619D03*
D29*
X274763092Y-198352763D03*
D13*
X279711533Y-196045267D03*
%TD*%
D16*
%TO.C,S4*%
X183034612Y-132606719D03*
X190625615Y-133270846D03*
X189581824Y-130629824D03*
X184521155Y-130187072D03*
D17*
X186608738Y-135469117D03*
D18*
X181548069Y-135026366D03*
X191669407Y-135911868D03*
%TD*%
D12*
%TO.C,D12*%
X238214298Y-104954606D03*
D11*
X239068430Y-99561827D03*
X238552196Y-102821199D03*
D13*
X239406328Y-97428420D03*
%TD*%
D16*
%TO.C,S1*%
X170680000Y-139849000D03*
X163060000Y-139849000D03*
X169410000Y-137309000D03*
X164330000Y-137309000D03*
D18*
X171950000Y-142389000D03*
X161790000Y-142389000D03*
D17*
X166870000Y-142389000D03*
%TD*%
D16*
%TO.C,S13*%
X240142245Y-140341879D03*
X247668430Y-141533910D03*
X241793953Y-138031823D03*
X246811409Y-138826510D03*
D17*
X243507994Y-143446623D03*
D18*
X238490537Y-142651936D03*
X248525451Y-144241310D03*
%TD*%
M02*
