  0
SECTION
  2
HEADER
  9
$ACADVER
  1
AC1009
  9
$EXTMIN
 10
0.0
 20
0.0
 30
0.0
  9
$EXTMAX
 10
1000.0
 20
1000.0
 30
0.0
  9
$FILLMODE
 70
 0
  9
$SPLFRAME
 70
 1
  0
ENDSEC
  0
SECTION
  2
TABLES
  0
TABLE
  2
LAYER
 70
1
  0
LAYER
  2
0
 70
     0
 62
     7
  6
CONTINUOUS
  0
ENDTAB
  0
ENDSEC
  0
SECTION
  2
ENTITIES
  0
LINE
  8
0
 62
     0
 10
0.0950846
 20
38.1854
 30
0.0
 11
95.3452
 21
38.1854
 31
0.0
  0
LINE
  8
0
 62
     0
 10
95.3452
 20
38.1854
 30
0.0
 11
95.3452
 21
0.0854385
 31
0.0
  0
LINE
  8
0
 62
     0
 10
95.3452
 20
0.0854385
 30
0.0
 11
0.0950846
 21
0.0854385
 31
0.0
  0
LINE
  8
0
 62
     0
 10
0.0950846
 20
0.0854385
 30
0.0
 11
0.0950846
 21
38.1854
 31
0.0
  0
LINE
  8
0
 62
     0
 10
2.61965
 20
16.6109
 30
0.0
 11
2.61965
 21
15.6104
 31
0.0
  0
LINE
  8
0
 62
     0
 10
2.61965
 20
15.6104
 30
0.0
 11
1.82039
 21
15.6104
 31
0.0
  0
LINE
  8
0
 62
     0
 10
1.82039
 20
15.6104
 30
0.0
 11
1.82039
 21
12.5112
 31
0.0
  0
LINE
  8
0
 62
     0
 10
1.82039
 20
12.5112
 30
0.0
 11
2.61965
 21
12.5112
 31
0.0
  0
LINE
  8
0
 62
     0
 10
2.61965
 20
12.5112
 30
0.0
 11
2.61965
 21
6.71241
 31
0.0
  0
LINE
  8
0
 62
     0
 10
2.61965
 20
6.71241
 30
0.0
 11
1.82039
 21
6.71241
 31
0.0
  0
LINE
  8
0
 62
     0
 10
1.82039
 20
6.71241
 30
0.0
 11
1.82039
 21
3.61184
 31
0.0
  0
LINE
  8
0
 62
     0
 10
1.82039
 20
3.61184
 30
0.0
 11
2.61965
 21
3.61184
 31
0.0
  0
LINE
  8
0
 62
     0
 10
2.61965
 20
3.61184
 30
0.0
 11
2.61965
 21
2.61276
 31
0.0
  0
LINE
  8
0
 62
     0
 10
2.61965
 20
2.61276
 30
0.0
 11
16.6192
 21
2.61276
 31
0.0
  0
LINE
  8
0
 62
     0
 10
16.6192
 20
2.61276
 30
0.0
 11
16.6192
 21
3.61184
 31
0.0
  0
LINE
  8
0
 62
     0
 10
16.6192
 20
3.61184
 30
0.0
 11
17.4198
 21
3.61184
 31
0.0
  0
LINE
  8
0
 62
     0
 10
17.4198
 20
3.61184
 30
0.0
 11
17.4198
 21
6.71241
 31
0.0
  0
LINE
  8
0
 62
     0
 10
17.4198
 20
6.71241
 30
0.0
 11
16.6192
 21
6.71241
 31
0.0
  0
LINE
  8
0
 62
     0
 10
16.6192
 20
6.71241
 30
0.0
 11
16.6192
 21
12.5112
 31
0.0
  0
LINE
  8
0
 62
     0
 10
16.6192
 20
12.5112
 30
0.0
 11
17.4198
 21
12.5112
 31
0.0
  0
LINE
  8
0
 62
     0
 10
17.4198
 20
12.5112
 30
0.0
 11
17.4198
 21
15.6104
 31
0.0
  0
LINE
  8
0
 62
     0
 10
17.4198
 20
15.6104
 30
0.0
 11
16.6192
 21
15.6104
 31
0.0
  0
LINE
  8
0
 62
     0
 10
16.6192
 20
15.6104
 30
0.0
 11
16.6192
 21
16.6109
 31
0.0
  0
LINE
  8
0
 62
     0
 10
16.6192
 20
16.6109
 30
0.0
 11
2.61965
 21
16.6109
 31
0.0
  0
LINE
  8
0
 62
     0
 10
21.6697
 20
16.6109
 30
0.0
 11
21.6697
 21
15.6104
 31
0.0
  0
LINE
  8
0
 62
     0
 10
21.6697
 20
15.6104
 30
0.0
 11
20.8704
 21
15.6104
 31
0.0
  0
LINE
  8
0
 62
     0
 10
20.8704
 20
15.6104
 30
0.0
 11
20.8704
 21
12.5112
 31
0.0
  0
LINE
  8
0
 62
     0
 10
20.8704
 20
12.5112
 30
0.0
 11
21.6697
 21
12.5112
 31
0.0
  0
LINE
  8
0
 62
     0
 10
21.6697
 20
12.5112
 30
0.0
 11
21.6697
 21
6.71241
 31
0.0
  0
LINE
  8
0
 62
     0
 10
21.6697
 20
6.71241
 30
0.0
 11
20.8704
 21
6.71241
 31
0.0
  0
LINE
  8
0
 62
     0
 10
20.8704
 20
6.71241
 30
0.0
 11
20.8704
 21
3.61184
 31
0.0
  0
LINE
  8
0
 62
     0
 10
20.8704
 20
3.61184
 30
0.0
 11
21.6697
 21
3.61184
 31
0.0
  0
LINE
  8
0
 62
     0
 10
21.6697
 20
3.61184
 30
0.0
 11
21.6697
 21
2.61276
 31
0.0
  0
LINE
  8
0
 62
     0
 10
21.6697
 20
2.61276
 30
0.0
 11
35.669
 21
2.61276
 31
0.0
  0
LINE
  8
0
 62
     0
 10
35.669
 20
2.61276
 30
0.0
 11
35.669
 21
3.61184
 31
0.0
  0
LINE
  8
0
 62
     0
 10
35.669
 20
3.61184
 30
0.0
 11
36.4698
 21
3.61184
 31
0.0
  0
LINE
  8
0
 62
     0
 10
36.4698
 20
3.61184
 30
0.0
 11
36.4698
 21
6.71241
 31
0.0
  0
LINE
  8
0
 62
     0
 10
36.4698
 20
6.71241
 30
0.0
 11
35.669
 21
6.71241
 31
0.0
  0
LINE
  8
0
 62
     0
 10
35.669
 20
6.71241
 30
0.0
 11
35.669
 21
12.5112
 31
0.0
  0
LINE
  8
0
 62
     0
 10
35.669
 20
12.5112
 30
0.0
 11
36.4698
 21
12.5112
 31
0.0
  0
LINE
  8
0
 62
     0
 10
36.4698
 20
12.5112
 30
0.0
 11
36.4698
 21
15.6104
 31
0.0
  0
LINE
  8
0
 62
     0
 10
36.4698
 20
15.6104
 30
0.0
 11
35.669
 21
15.6104
 31
0.0
  0
LINE
  8
0
 62
     0
 10
35.669
 20
15.6104
 30
0.0
 11
35.669
 21
16.6109
 31
0.0
  0
LINE
  8
0
 62
     0
 10
35.669
 20
16.6109
 30
0.0
 11
21.6697
 21
16.6109
 31
0.0
  0
LINE
  8
0
 62
     0
 10
40.7197
 20
16.6109
 30
0.0
 11
40.7197
 21
15.6104
 31
0.0
  0
LINE
  8
0
 62
     0
 10
40.7197
 20
15.6104
 30
0.0
 11
39.9203
 21
15.6104
 31
0.0
  0
LINE
  8
0
 62
     0
 10
39.9203
 20
15.6104
 30
0.0
 11
39.9203
 21
12.5112
 31
0.0
  0
LINE
  8
0
 62
     0
 10
39.9203
 20
12.5112
 30
0.0
 11
40.7197
 21
12.5112
 31
0.0
  0
LINE
  8
0
 62
     0
 10
40.7197
 20
12.5112
 30
0.0
 11
40.7197
 21
6.71241
 31
0.0
  0
LINE
  8
0
 62
     0
 10
40.7197
 20
6.71241
 30
0.0
 11
39.9203
 21
6.71241
 31
0.0
  0
LINE
  8
0
 62
     0
 10
39.9203
 20
6.71241
 30
0.0
 11
39.9203
 21
3.61184
 31
0.0
  0
LINE
  8
0
 62
     0
 10
39.9203
 20
3.61184
 30
0.0
 11
40.7197
 21
3.61184
 31
0.0
  0
LINE
  8
0
 62
     0
 10
40.7197
 20
3.61184
 30
0.0
 11
40.7197
 21
2.61276
 31
0.0
  0
LINE
  8
0
 62
     0
 10
40.7197
 20
2.61276
 30
0.0
 11
54.719
 21
2.61276
 31
0.0
  0
LINE
  8
0
 62
     0
 10
54.719
 20
2.61276
 30
0.0
 11
54.719
 21
3.61184
 31
0.0
  0
LINE
  8
0
 62
     0
 10
54.719
 20
3.61184
 30
0.0
 11
55.5198
 21
3.61184
 31
0.0
  0
LINE
  8
0
 62
     0
 10
55.5198
 20
3.61184
 30
0.0
 11
55.5198
 21
6.71241
 31
0.0
  0
LINE
  8
0
 62
     0
 10
55.5198
 20
6.71241
 30
0.0
 11
54.719
 21
6.71241
 31
0.0
  0
LINE
  8
0
 62
     0
 10
54.719
 20
6.71241
 30
0.0
 11
54.719
 21
12.5112
 31
0.0
  0
LINE
  8
0
 62
     0
 10
54.719
 20
12.5112
 30
0.0
 11
55.5198
 21
12.5112
 31
0.0
  0
LINE
  8
0
 62
     0
 10
55.5198
 20
12.5112
 30
0.0
 11
55.5198
 21
15.6104
 31
0.0
  0
LINE
  8
0
 62
     0
 10
55.5198
 20
15.6104
 30
0.0
 11
54.719
 21
15.6104
 31
0.0
  0
LINE
  8
0
 62
     0
 10
54.719
 20
15.6104
 30
0.0
 11
54.719
 21
16.6109
 31
0.0
  0
LINE
  8
0
 62
     0
 10
54.719
 20
16.6109
 30
0.0
 11
40.7197
 21
16.6109
 31
0.0
  0
LINE
  8
0
 62
     0
 10
59.7697
 20
16.6109
 30
0.0
 11
59.7697
 21
15.6104
 31
0.0
  0
LINE
  8
0
 62
     0
 10
59.7697
 20
15.6104
 30
0.0
 11
58.9703
 21
15.6104
 31
0.0
  0
LINE
  8
0
 62
     0
 10
58.9703
 20
15.6104
 30
0.0
 11
58.9703
 21
12.5112
 31
0.0
  0
LINE
  8
0
 62
     0
 10
58.9703
 20
12.5112
 30
0.0
 11
59.7697
 21
12.5112
 31
0.0
  0
LINE
  8
0
 62
     0
 10
59.7697
 20
12.5112
 30
0.0
 11
59.7697
 21
6.71241
 31
0.0
  0
LINE
  8
0
 62
     0
 10
59.7697
 20
6.71241
 30
0.0
 11
58.9703
 21
6.71241
 31
0.0
  0
LINE
  8
0
 62
     0
 10
58.9703
 20
6.71241
 30
0.0
 11
58.9703
 21
3.61184
 31
0.0
  0
LINE
  8
0
 62
     0
 10
58.9703
 20
3.61184
 30
0.0
 11
59.7697
 21
3.61184
 31
0.0
  0
LINE
  8
0
 62
     0
 10
59.7697
 20
3.61184
 30
0.0
 11
59.7697
 21
2.61276
 31
0.0
  0
LINE
  8
0
 62
     0
 10
59.7697
 20
2.61276
 30
0.0
 11
73.769
 21
2.61276
 31
0.0
  0
LINE
  8
0
 62
     0
 10
73.769
 20
2.61276
 30
0.0
 11
73.769
 21
3.61184
 31
0.0
  0
LINE
  8
0
 62
     0
 10
73.769
 20
3.61184
 30
0.0
 11
74.5698
 21
3.61184
 31
0.0
  0
LINE
  8
0
 62
     0
 10
74.5698
 20
3.61184
 30
0.0
 11
74.5698
 21
6.71241
 31
0.0
  0
LINE
  8
0
 62
     0
 10
74.5698
 20
6.71241
 30
0.0
 11
73.769
 21
6.71241
 31
0.0
  0
LINE
  8
0
 62
     0
 10
73.769
 20
6.71241
 30
0.0
 11
73.769
 21
12.5112
 31
0.0
  0
LINE
  8
0
 62
     0
 10
73.769
 20
12.5112
 30
0.0
 11
74.5698
 21
12.5112
 31
0.0
  0
LINE
  8
0
 62
     0
 10
74.5698
 20
12.5112
 30
0.0
 11
74.5698
 21
15.6104
 31
0.0
  0
LINE
  8
0
 62
     0
 10
74.5698
 20
15.6104
 30
0.0
 11
73.769
 21
15.6104
 31
0.0
  0
LINE
  8
0
 62
     0
 10
73.769
 20
15.6104
 30
0.0
 11
73.769
 21
16.6109
 31
0.0
  0
LINE
  8
0
 62
     0
 10
73.769
 20
16.6109
 30
0.0
 11
59.7697
 21
16.6109
 31
0.0
  0
LINE
  8
0
 62
     0
 10
78.8197
 20
16.6109
 30
0.0
 11
78.8197
 21
15.6104
 31
0.0
  0
LINE
  8
0
 62
     0
 10
78.8197
 20
15.6104
 30
0.0
 11
78.0203
 21
15.6104
 31
0.0
  0
LINE
  8
0
 62
     0
 10
78.0203
 20
15.6104
 30
0.0
 11
78.0203
 21
12.5112
 31
0.0
  0
LINE
  8
0
 62
     0
 10
78.0203
 20
12.5112
 30
0.0
 11
78.8197
 21
12.5112
 31
0.0
  0
LINE
  8
0
 62
     0
 10
78.8197
 20
12.5112
 30
0.0
 11
78.8197
 21
6.71241
 31
0.0
  0
LINE
  8
0
 62
     0
 10
78.8197
 20
6.71241
 30
0.0
 11
78.0203
 21
6.71241
 31
0.0
  0
LINE
  8
0
 62
     0
 10
78.0203
 20
6.71241
 30
0.0
 11
78.0203
 21
3.61184
 31
0.0
  0
LINE
  8
0
 62
     0
 10
78.0203
 20
3.61184
 30
0.0
 11
78.8197
 21
3.61184
 31
0.0
  0
LINE
  8
0
 62
     0
 10
78.8197
 20
3.61184
 30
0.0
 11
78.8197
 21
2.61276
 31
0.0
  0
LINE
  8
0
 62
     0
 10
78.8197
 20
2.61276
 30
0.0
 11
92.819
 21
2.61276
 31
0.0
  0
LINE
  8
0
 62
     0
 10
92.819
 20
2.61276
 30
0.0
 11
92.819
 21
3.61184
 31
0.0
  0
LINE
  8
0
 62
     0
 10
92.819
 20
3.61184
 30
0.0
 11
93.6184
 21
3.61184
 31
0.0
  0
LINE
  8
0
 62
     0
 10
93.6184
 20
3.61184
 30
0.0
 11
93.6184
 21
6.71241
 31
0.0
  0
LINE
  8
0
 62
     0
 10
93.6184
 20
6.71241
 30
0.0
 11
92.819
 21
6.71241
 31
0.0
  0
LINE
  8
0
 62
     0
 10
92.819
 20
6.71241
 30
0.0
 11
92.819
 21
12.5112
 31
0.0
  0
LINE
  8
0
 62
     0
 10
92.819
 20
12.5112
 30
0.0
 11
93.6184
 21
12.5112
 31
0.0
  0
LINE
  8
0
 62
     0
 10
93.6184
 20
12.5112
 30
0.0
 11
93.6184
 21
15.6104
 31
0.0
  0
LINE
  8
0
 62
     0
 10
93.6184
 20
15.6104
 30
0.0
 11
92.819
 21
15.6104
 31
0.0
  0
LINE
  8
0
 62
     0
 10
92.819
 20
15.6104
 30
0.0
 11
92.819
 21
16.6109
 31
0.0
  0
LINE
  8
0
 62
     0
 10
92.819
 20
16.6109
 30
0.0
 11
78.8197
 21
16.6109
 31
0.0
  0
LINE
  8
0
 62
     0
 10
2.61965
 20
35.6609
 30
0.0
 11
2.61965
 21
34.6604
 31
0.0
  0
LINE
  8
0
 62
     0
 10
2.61965
 20
34.6604
 30
0.0
 11
1.82039
 21
34.6604
 31
0.0
  0
LINE
  8
0
 62
     0
 10
1.82039
 20
34.6604
 30
0.0
 11
1.82039
 21
31.5612
 31
0.0
  0
LINE
  8
0
 62
     0
 10
1.82039
 20
31.5612
 30
0.0
 11
2.61965
 21
31.5612
 31
0.0
  0
LINE
  8
0
 62
     0
 10
2.61965
 20
31.5612
 30
0.0
 11
2.61965
 21
25.7624
 31
0.0
  0
LINE
  8
0
 62
     0
 10
2.61965
 20
25.7624
 30
0.0
 11
1.82039
 21
25.7624
 31
0.0
  0
LINE
  8
0
 62
     0
 10
1.82039
 20
25.7624
 30
0.0
 11
1.82039
 21
22.6618
 31
0.0
  0
LINE
  8
0
 62
     0
 10
1.82039
 20
22.6618
 30
0.0
 11
2.61965
 21
22.6618
 31
0.0
  0
LINE
  8
0
 62
     0
 10
2.61965
 20
22.6618
 30
0.0
 11
2.61965
 21
21.6628
 31
0.0
  0
LINE
  8
0
 62
     0
 10
2.61965
 20
21.6628
 30
0.0
 11
16.6192
 21
21.6628
 31
0.0
  0
LINE
  8
0
 62
     0
 10
16.6192
 20
21.6628
 30
0.0
 11
16.6192
 21
22.6618
 31
0.0
  0
LINE
  8
0
 62
     0
 10
16.6192
 20
22.6618
 30
0.0
 11
17.4198
 21
22.6618
 31
0.0
  0
LINE
  8
0
 62
     0
 10
17.4198
 20
22.6618
 30
0.0
 11
17.4198
 21
25.7624
 31
0.0
  0
LINE
  8
0
 62
     0
 10
17.4198
 20
25.7624
 30
0.0
 11
16.6192
 21
25.7624
 31
0.0
  0
LINE
  8
0
 62
     0
 10
16.6192
 20
25.7624
 30
0.0
 11
16.6192
 21
31.5612
 31
0.0
  0
LINE
  8
0
 62
     0
 10
16.6192
 20
31.5612
 30
0.0
 11
17.4198
 21
31.5612
 31
0.0
  0
LINE
  8
0
 62
     0
 10
17.4198
 20
31.5612
 30
0.0
 11
17.4198
 21
34.6604
 31
0.0
  0
LINE
  8
0
 62
     0
 10
17.4198
 20
34.6604
 30
0.0
 11
16.6192
 21
34.6604
 31
0.0
  0
LINE
  8
0
 62
     0
 10
16.6192
 20
34.6604
 30
0.0
 11
16.6192
 21
35.6609
 31
0.0
  0
LINE
  8
0
 62
     0
 10
16.6192
 20
35.6609
 30
0.0
 11
2.61965
 21
35.6609
 31
0.0
  0
LINE
  8
0
 62
     0
 10
21.6697
 20
35.6609
 30
0.0
 11
21.6697
 21
34.6604
 31
0.0
  0
LINE
  8
0
 62
     0
 10
21.6697
 20
34.6604
 30
0.0
 11
20.8704
 21
34.6604
 31
0.0
  0
LINE
  8
0
 62
     0
 10
20.8704
 20
34.6604
 30
0.0
 11
20.8704
 21
31.5612
 31
0.0
  0
LINE
  8
0
 62
     0
 10
20.8704
 20
31.5612
 30
0.0
 11
21.6697
 21
31.5612
 31
0.0
  0
LINE
  8
0
 62
     0
 10
21.6697
 20
31.5612
 30
0.0
 11
21.6697
 21
25.7624
 31
0.0
  0
LINE
  8
0
 62
     0
 10
21.6697
 20
25.7624
 30
0.0
 11
20.8704
 21
25.7624
 31
0.0
  0
LINE
  8
0
 62
     0
 10
20.8704
 20
25.7624
 30
0.0
 11
20.8704
 21
22.6618
 31
0.0
  0
LINE
  8
0
 62
     0
 10
20.8704
 20
22.6618
 30
0.0
 11
21.6697
 21
22.6618
 31
0.0
  0
LINE
  8
0
 62
     0
 10
21.6697
 20
22.6618
 30
0.0
 11
21.6697
 21
21.6628
 31
0.0
  0
LINE
  8
0
 62
     0
 10
21.6697
 20
21.6628
 30
0.0
 11
35.669
 21
21.6628
 31
0.0
  0
LINE
  8
0
 62
     0
 10
35.669
 20
21.6628
 30
0.0
 11
35.669
 21
22.6618
 31
0.0
  0
LINE
  8
0
 62
     0
 10
35.669
 20
22.6618
 30
0.0
 11
36.4698
 21
22.6618
 31
0.0
  0
LINE
  8
0
 62
     0
 10
36.4698
 20
22.6618
 30
0.0
 11
36.4698
 21
25.7624
 31
0.0
  0
LINE
  8
0
 62
     0
 10
36.4698
 20
25.7624
 30
0.0
 11
35.669
 21
25.7624
 31
0.0
  0
LINE
  8
0
 62
     0
 10
35.669
 20
25.7624
 30
0.0
 11
35.669
 21
31.5612
 31
0.0
  0
LINE
  8
0
 62
     0
 10
35.669
 20
31.5612
 30
0.0
 11
36.4698
 21
31.5612
 31
0.0
  0
LINE
  8
0
 62
     0
 10
36.4698
 20
31.5612
 30
0.0
 11
36.4698
 21
34.6604
 31
0.0
  0
LINE
  8
0
 62
     0
 10
36.4698
 20
34.6604
 30
0.0
 11
35.669
 21
34.6604
 31
0.0
  0
LINE
  8
0
 62
     0
 10
35.669
 20
34.6604
 30
0.0
 11
35.669
 21
35.6609
 31
0.0
  0
LINE
  8
0
 62
     0
 10
35.669
 20
35.6609
 30
0.0
 11
21.6697
 21
35.6609
 31
0.0
  0
LINE
  8
0
 62
     0
 10
40.7197
 20
35.6609
 30
0.0
 11
40.7197
 21
34.6604
 31
0.0
  0
LINE
  8
0
 62
     0
 10
40.7197
 20
34.6604
 30
0.0
 11
39.9203
 21
34.6604
 31
0.0
  0
LINE
  8
0
 62
     0
 10
39.9203
 20
34.6604
 30
0.0
 11
39.9203
 21
31.5612
 31
0.0
  0
LINE
  8
0
 62
     0
 10
39.9203
 20
31.5612
 30
0.0
 11
40.7197
 21
31.5612
 31
0.0
  0
LINE
  8
0
 62
     0
 10
40.7197
 20
31.5612
 30
0.0
 11
40.7197
 21
25.7624
 31
0.0
  0
LINE
  8
0
 62
     0
 10
40.7197
 20
25.7624
 30
0.0
 11
39.9203
 21
25.7624
 31
0.0
  0
LINE
  8
0
 62
     0
 10
39.9203
 20
25.7624
 30
0.0
 11
39.9203
 21
22.6618
 31
0.0
  0
LINE
  8
0
 62
     0
 10
39.9203
 20
22.6618
 30
0.0
 11
40.7197
 21
22.6618
 31
0.0
  0
LINE
  8
0
 62
     0
 10
40.7197
 20
22.6618
 30
0.0
 11
40.7197
 21
21.6628
 31
0.0
  0
LINE
  8
0
 62
     0
 10
40.7197
 20
21.6628
 30
0.0
 11
54.719
 21
21.6628
 31
0.0
  0
LINE
  8
0
 62
     0
 10
54.719
 20
21.6628
 30
0.0
 11
54.719
 21
22.6618
 31
0.0
  0
LINE
  8
0
 62
     0
 10
54.719
 20
22.6618
 30
0.0
 11
55.5198
 21
22.6618
 31
0.0
  0
LINE
  8
0
 62
     0
 10
55.5198
 20
22.6618
 30
0.0
 11
55.5198
 21
25.7624
 31
0.0
  0
LINE
  8
0
 62
     0
 10
55.5198
 20
25.7624
 30
0.0
 11
54.719
 21
25.7624
 31
0.0
  0
LINE
  8
0
 62
     0
 10
54.719
 20
25.7624
 30
0.0
 11
54.719
 21
31.5612
 31
0.0
  0
LINE
  8
0
 62
     0
 10
54.719
 20
31.5612
 30
0.0
 11
55.5198
 21
31.5612
 31
0.0
  0
LINE
  8
0
 62
     0
 10
55.5198
 20
31.5612
 30
0.0
 11
55.5198
 21
34.6604
 31
0.0
  0
LINE
  8
0
 62
     0
 10
55.5198
 20
34.6604
 30
0.0
 11
54.719
 21
34.6604
 31
0.0
  0
LINE
  8
0
 62
     0
 10
54.719
 20
34.6604
 30
0.0
 11
54.719
 21
35.6609
 31
0.0
  0
LINE
  8
0
 62
     0
 10
54.719
 20
35.6609
 30
0.0
 11
40.7197
 21
35.6609
 31
0.0
  0
LINE
  8
0
 62
     0
 10
59.7697
 20
35.6609
 30
0.0
 11
59.7697
 21
34.6604
 31
0.0
  0
LINE
  8
0
 62
     0
 10
59.7697
 20
34.6604
 30
0.0
 11
58.9703
 21
34.6604
 31
0.0
  0
LINE
  8
0
 62
     0
 10
58.9703
 20
34.6604
 30
0.0
 11
58.9703
 21
31.5612
 31
0.0
  0
LINE
  8
0
 62
     0
 10
58.9703
 20
31.5612
 30
0.0
 11
59.7697
 21
31.5612
 31
0.0
  0
LINE
  8
0
 62
     0
 10
59.7697
 20
31.5612
 30
0.0
 11
59.7697
 21
25.7624
 31
0.0
  0
LINE
  8
0
 62
     0
 10
59.7697
 20
25.7624
 30
0.0
 11
58.9703
 21
25.7624
 31
0.0
  0
LINE
  8
0
 62
     0
 10
58.9703
 20
25.7624
 30
0.0
 11
58.9703
 21
22.6618
 31
0.0
  0
LINE
  8
0
 62
     0
 10
58.9703
 20
22.6618
 30
0.0
 11
59.7697
 21
22.6618
 31
0.0
  0
LINE
  8
0
 62
     0
 10
59.7697
 20
22.6618
 30
0.0
 11
59.7697
 21
21.6628
 31
0.0
  0
LINE
  8
0
 62
     0
 10
59.7697
 20
21.6628
 30
0.0
 11
73.769
 21
21.6628
 31
0.0
  0
LINE
  8
0
 62
     0
 10
73.769
 20
21.6628
 30
0.0
 11
73.769
 21
22.6618
 31
0.0
  0
LINE
  8
0
 62
     0
 10
73.769
 20
22.6618
 30
0.0
 11
74.5698
 21
22.6618
 31
0.0
  0
LINE
  8
0
 62
     0
 10
74.5698
 20
22.6618
 30
0.0
 11
74.5698
 21
25.7624
 31
0.0
  0
LINE
  8
0
 62
     0
 10
74.5698
 20
25.7624
 30
0.0
 11
73.769
 21
25.7624
 31
0.0
  0
LINE
  8
0
 62
     0
 10
73.769
 20
25.7624
 30
0.0
 11
73.769
 21
31.5612
 31
0.0
  0
LINE
  8
0
 62
     0
 10
73.769
 20
31.5612
 30
0.0
 11
74.5698
 21
31.5612
 31
0.0
  0
LINE
  8
0
 62
     0
 10
74.5698
 20
31.5612
 30
0.0
 11
74.5698
 21
34.6604
 31
0.0
  0
LINE
  8
0
 62
     0
 10
74.5698
 20
34.6604
 30
0.0
 11
73.769
 21
34.6604
 31
0.0
  0
LINE
  8
0
 62
     0
 10
73.769
 20
34.6604
 30
0.0
 11
73.769
 21
35.6609
 31
0.0
  0
LINE
  8
0
 62
     0
 10
73.769
 20
35.6609
 30
0.0
 11
59.7697
 21
35.6609
 31
0.0
  0
LINE
  8
0
 62
     0
 10
78.8197
 20
35.6609
 30
0.0
 11
78.8197
 21
34.6604
 31
0.0
  0
LINE
  8
0
 62
     0
 10
78.8197
 20
34.6604
 30
0.0
 11
78.0203
 21
34.6604
 31
0.0
  0
LINE
  8
0
 62
     0
 10
78.0203
 20
34.6604
 30
0.0
 11
78.0203
 21
31.5612
 31
0.0
  0
LINE
  8
0
 62
     0
 10
78.0203
 20
31.5612
 30
0.0
 11
78.8197
 21
31.5612
 31
0.0
  0
LINE
  8
0
 62
     0
 10
78.8197
 20
31.5612
 30
0.0
 11
78.8197
 21
25.7624
 31
0.0
  0
LINE
  8
0
 62
     0
 10
78.8197
 20
25.7624
 30
0.0
 11
78.0203
 21
25.7624
 31
0.0
  0
LINE
  8
0
 62
     0
 10
78.0203
 20
25.7624
 30
0.0
 11
78.0203
 21
22.6618
 31
0.0
  0
LINE
  8
0
 62
     0
 10
78.0203
 20
22.6618
 30
0.0
 11
78.8197
 21
22.6618
 31
0.0
  0
LINE
  8
0
 62
     0
 10
78.8197
 20
22.6618
 30
0.0
 11
78.8197
 21
21.6628
 31
0.0
  0
LINE
  8
0
 62
     0
 10
78.8197
 20
21.6628
 30
0.0
 11
92.819
 21
21.6628
 31
0.0
  0
LINE
  8
0
 62
     0
 10
92.819
 20
21.6628
 30
0.0
 11
92.819
 21
22.6618
 31
0.0
  0
LINE
  8
0
 62
     0
 10
92.819
 20
22.6618
 30
0.0
 11
93.6184
 21
22.6618
 31
0.0
  0
LINE
  8
0
 62
     0
 10
93.6184
 20
22.6618
 30
0.0
 11
93.6184
 21
25.7624
 31
0.0
  0
LINE
  8
0
 62
     0
 10
93.6184
 20
25.7624
 30
0.0
 11
92.819
 21
25.7624
 31
0.0
  0
LINE
  8
0
 62
     0
 10
92.819
 20
25.7624
 30
0.0
 11
92.819
 21
31.5612
 31
0.0
  0
LINE
  8
0
 62
     0
 10
92.819
 20
31.5612
 30
0.0
 11
93.6184
 21
31.5612
 31
0.0
  0
LINE
  8
0
 62
     0
 10
93.6184
 20
31.5612
 30
0.0
 11
93.6184
 21
34.6604
 31
0.0
  0
LINE
  8
0
 62
     0
 10
93.6184
 20
34.6604
 30
0.0
 11
92.819
 21
34.6604
 31
0.0
  0
LINE
  8
0
 62
     0
 10
92.819
 20
34.6604
 30
0.0
 11
92.819
 21
35.6609
 31
0.0
  0
LINE
  8
0
 62
     0
 10
92.819
 20
35.6609
 30
0.0
 11
78.8197
 21
35.6609
 31
0.0
  0
ENDSEC
  0
EOF
